<?xml version="1.0" encoding="UTF-8" standalone="no"?><!DOCTYPE svg PUBLIC "-//W3C//DTD SVG 1.1//EN" "http://www.w3.org/Graphics/SVG/1.1/DTD/svg11.dtd"><svg width="100%" height="100%" viewBox="0 0 80 80" version="1.1" xmlns="http://www.w3.org/2000/svg" xmlns:xlink="http://www.w3.org/1999/xlink" xml:space="preserve" xmlns:serif="http://www.serif.com/" style="fill-rule:evenodd;clip-rule:evenodd;stroke-linejoin:round;stroke-miterlimit:2;"><g><rect x="23.5" y="38.5" width="33" height="3" style="fill:#484b4c;fill-rule:nonzero;"/><rect x="38.5" y="23.5" width="3" height="33" style="fill:#484b4c;fill-rule:nonzero;"/><path d="M16,13c-1.654,0 -3,1.346 -3,3l0,48c0,1.655 1.346,3 3,3l48,0c1.654,0 3,-1.345 3,-3l0,-48c0,-1.654 -1.346,-3 -3,-3l-48,0Zm48,57l-48,0c-3.309,0 -6,-2.691 -6,-6l0,-48c0,-3.309 2.691,-6 6,-6l48,0c3.309,0 6,2.691 6,6l0,48c0,3.309 -2.691,6 -6,6Z" style="fill:#484b4c;fill-rule:nonzero;"/></g></svg>