<?xml version="1.0" encoding="UTF-8" standalone="no"?><!DOCTYPE svg PUBLIC "-//W3C//DTD SVG 1.1//EN" "http://www.w3.org/Graphics/SVG/1.1/DTD/svg11.dtd"><svg width="100%" height="100%" viewBox="0 0 80 80" version="1.1" xmlns="http://www.w3.org/2000/svg" xmlns:xlink="http://www.w3.org/1999/xlink" xml:space="preserve" xmlns:serif="http://www.serif.com/" style="fill-rule:evenodd;clip-rule:evenodd;stroke-linejoin:round;stroke-miterlimit:2;"><g><path d="M68.285,11.718c-15.621,-15.624 -40.949,-15.624 -56.569,-0c-15.621,15.626 -15.621,40.959 -0,56.583c15.62,15.625 40.948,15.625 56.569,-0c3.456,-3.457 6.148,-7.389 8.074,-11.586c6.782,-14.774 4.09,-32.828 -8.074,-44.997Z" style="fill:#e6e6e6;fill-opacity:0.5;fill-rule:nonzero;"/><path d="M63.482,27.828l-5.964,-5.965c-0.411,-0.412 -1.079,-0.412 -1.491,-0l-21.618,21.624l-10.436,-10.439c-0.413,-0.412 -1.08,-0.412 -1.492,-0l-5.963,5.966c-0.412,0.412 -0.412,1.079 -0,1.491l17.145,17.15c0.412,0.413 1.08,0.413 1.491,0l28.328,-28.335c0.412,-0.412 0.412,-1.08 -0,-1.492Z" style="fill:#2ab486;fill-opacity:0.8;"/></g></svg>