<?xml version="1.0" encoding="UTF-8" standalone="no"?><!DOCTYPE svg PUBLIC "-//W3C//DTD SVG 1.1//EN" "http://www.w3.org/Graphics/SVG/1.1/DTD/svg11.dtd"><svg width="100%" height="100%" viewBox="0 0 80 80" version="1.1" xmlns="http://www.w3.org/2000/svg" xmlns:xlink="http://www.w3.org/1999/xlink" xml:space="preserve" xmlns:serif="http://www.serif.com/" style="fill-rule:evenodd;clip-rule:evenodd;stroke-linejoin:round;stroke-miterlimit:2;"><path d="M15.829,11c1.805,-1.504 4.529,-1.256 6.034,0.548l18.137,21.759l18.137,-21.767c0.814,-0.975 2.021,-1.54 3.292,-1.54c2.351,-0 4.287,1.935 4.287,4.286c-0,1.004 -0.353,1.976 -0.996,2.747l-19.14,22.967l19.14,22.967c0.601,0.757 0.928,1.696 0.928,2.663c0,2.351 -1.934,4.285 -4.285,4.285c-1.236,0 -2.412,-0.534 -3.226,-1.463l-18.137,-21.759l-18.137,21.767c-0.814,0.975 -2.021,1.54 -3.292,1.54c-2.351,0 -4.287,-1.935 -4.287,-4.286c0,-1.004 0.353,-1.976 0.996,-2.747l19.14,-22.967l-19.14,-22.967c-1.504,-1.806 -1.256,-4.528 0.549,-6.033Z" style="fill:#fff;fill-rule:nonzero;"/></svg>