<?xml version="1.0" encoding="UTF-8" standalone="no"?>
<!DOCTYPE svg PUBLIC "-//W3C//DTD SVG 1.1//EN" "http://www.w3.org/Graphics/SVG/1.1/DTD/svg11.dtd">
<svg width="100%" height="100%" viewBox="0 0 800 800" version="1.1" xmlns="http://www.w3.org/2000/svg" xmlns:xlink="http://www.w3.org/1999/xlink" xml:space="preserve" xmlns:serif="http://www.serif.com/" style="fill-rule:evenodd;clip-rule:evenodd;stroke-linejoin:round;stroke-miterlimit:2;">
    <g transform="matrix(16.0449,0,0,16.042,-273.646,-302.039)">
        <path d="M66.915,43.767C66.915,57.528 55.755,68.697 41.985,68.697C28.215,68.697 17.055,57.528 17.055,43.767C17.055,29.997 28.215,18.828 41.985,18.828C55.755,18.828 66.915,29.997 66.915,43.767Z" style="fill:rgb(211,212,198);fill-rule:nonzero;"/>
        <path d="M17.055,43.763L17.055,43.743L17.055,43.763Z" style="fill:rgb(189,187,188);fill-rule:nonzero;"/>
        <path d="M41.985,68.697C39.618,68.697 37.328,68.367 35.159,67.751C24.709,64.782 17.057,55.164 17.055,43.763L17.055,43.743C17.055,43.559 17.064,43.366 17.064,43.182L35.406,26.721L41.985,26.748L41.985,68.697Z" style="fill:rgb(156,156,145);fill-rule:nonzero;"/>
        <rect x="37.724" y="55.823" width="9.382" height="3.161" style="fill:rgb(74,73,74);fill-rule:nonzero;"/>
        <path d="M37.321,61.707C37.967,58.004 39.26,54.356 39.26,50.596L45.559,50.596C45.559,54.356 46.852,58.004 47.499,61.707C44.131,62.295 40.688,62.295 37.321,61.707Z" style="fill:rgb(224,198,173);fill-rule:nonzero;"/>
        <path d="M27.945,62.263L56.008,62.263L56.006,62.258L27.949,62.258L27.945,62.263Z" style="fill:rgb(65,180,184);fill-rule:nonzero;"/>
        <path d="M40.345,58.205L31.663,58.205L31.642,58.217L40.383,58.217L40.345,58.205Z" style="fill:rgb(65,180,184);fill-rule:nonzero;"/>
        <path d="M31.378,66.31L52.581,66.31L52.592,66.305L31.368,66.305L31.378,66.31Z" style="fill:rgb(65,180,184);fill-rule:nonzero;"/>
        <path d="M44.473,58.205L44.435,58.217L52.627,58.217L52.607,58.205L44.473,58.205Z" style="fill:rgb(65,180,184);fill-rule:nonzero;"/>
        <path d="M47.096,55.823C47.023,56.366 46.671,56.887 46.133,57.323C45.703,57.676 45.148,57.978 44.522,58.19L44.473,58.205L52.607,58.205C50.645,57.088 48.304,56.377 47.096,55.823Z" style="fill:white;fill-rule:nonzero;"/>
        <path d="M40.296,58.19C39.668,57.978 39.12,57.676 38.684,57.323C38.147,56.887 37.799,56.366 37.71,55.829C36.333,56.46 33.624,57.174 31.663,58.205L40.345,58.205L40.296,58.19Z" style="fill:white;fill-rule:nonzero;"/>
        <path d="M42.411,58.549C41.699,58.549 41.009,58.424 40.383,58.217L31.642,58.217C30.782,58.671 30.066,59.187 29.678,59.786L27.949,62.258L56.006,62.258L55.548,60.995C55.019,59.847 53.904,58.946 52.627,58.217L44.435,58.217C43.808,58.424 43.118,58.549 42.411,58.549Z" style="fill:rgb(74,73,74);fill-rule:nonzero;"/>
        <path d="M26.968,63.659C27.842,64.32 28.766,64.913 29.722,65.467L29.93,65.573C30.148,65.697 30.372,65.809 30.595,65.926C30.851,66.054 31.108,66.18 31.368,66.305L52.592,66.305C52.797,66.207 53.004,66.12 53.209,66.016L53.41,65.92C53.964,65.635 54.507,65.333 55.027,65.008C55.576,64.672 56.103,64.32 56.617,63.944L56.008,62.263L27.945,62.263L26.968,63.659Z" style="fill:white;fill-rule:nonzero;"/>
        <path d="M31.542,66.39C31.754,66.485 31.967,66.581 32.179,66.676C32.555,66.832 32.929,66.983 33.315,67.124C33.439,67.168 33.557,67.225 33.685,67.264C36.283,68.182 39.075,68.696 41.986,68.696C44.729,68.696 47.359,68.238 49.828,67.426L50.012,67.359C50.477,67.202 50.925,67.029 51.373,66.849C51.502,66.799 51.625,66.748 51.753,66.698C52.033,66.577 52.306,66.44 52.581,66.31L31.378,66.31L31.542,66.39Z" style="fill:rgb(74,73,74);fill-rule:nonzero;"/>
        <path d="M44.534,40.082C43.509,41.024 42.324,42.553 42.831,44.572C43.056,45.477 43.573,46.232 44.098,46.927C44.793,47.839 45.565,48.633 46.287,49.511C46.861,50.214 47.426,51.02 47.643,51.984C47.905,53.119 47.958,53.529 47.539,54.538C47.385,54.927 47.315,55.193 47.518,55.567C47.781,56.066 48.367,56.288 48.817,56.061C48.992,55.973 49.122,55.817 49.174,55.613C49.221,55.415 49.184,55.194 49.089,54.998C48.901,54.668 48.522,54.529 48.228,54.672C48.11,54.727 48.03,54.832 47.993,54.969C47.958,55.103 47.982,55.244 48.049,55.376C48.109,55.485 48.201,55.564 48.307,55.603L48.378,55.622L48.375,55.62L48.444,55.625L48.262,55.469L48.133,55.333C48.07,55.23 48.06,55.108 48.086,55.003C48.11,54.896 48.177,54.811 48.275,54.757C48.525,54.635 48.854,54.763 48.999,55.04C49.095,55.215 49.121,55.402 49.078,55.579C49.037,55.754 48.928,55.896 48.77,55.973C48.554,56.082 48.298,56.071 48.07,55.969C47.332,55.489 47.587,54.838 47.819,54.424C48.302,53.475 48.674,52.788 48.646,51.451C48.613,49.975 47.938,48.583 47.044,47.487C46.159,46.394 44.921,45.253 44.582,43.705C44.433,43.031 44.349,42.154 44.513,41.548C44.668,40.97 45.265,39.409 44.534,40.082Z" style="fill:rgb(82,82,84);fill-rule:nonzero;"/>
        <path d="M54.179,47.358C53.141,46.741 51.919,46.16 50.881,45.337L44.324,41.927C44.4,42.642 46.972,45.175 47.396,45.866C48.041,46.941 49.032,47.664 50.015,48.286C51.298,49.113 52.644,49.729 53.957,50.487C54.992,51.101 56.066,51.854 56.739,53.021C57.506,54.354 58.032,55.594 57.551,57.311C57.303,57.992 56.8,57.876 56.62,57.809C56.478,57.72 56.37,57.587 56.328,57.425C56.29,57.292 56.308,57.154 56.377,57.034C56.448,56.914 56.554,56.831 56.689,56.796C56.782,56.77 56.879,56.782 56.965,56.825L57.029,56.86L57.231,57.034L57.226,56.829L57.23,56.827L57.22,56.817C57.203,56.781 56.97,56.522 56.645,56.629C56.463,56.688 56.317,56.802 56.232,56.949C56.143,57.106 56.121,57.29 56.17,57.467C56.228,57.684 56.368,57.863 56.562,57.974C56.752,58.081 56.973,58.109 57.182,58.052C57.388,57.994 57.551,57.845 57.625,57.727C58.096,56.799 58.271,55.366 58.241,54.281C58.243,53.434 58.133,52.572 57.871,51.743C57.246,49.789 55.801,48.316 54.179,47.358Z" style="fill:rgb(82,82,84);fill-rule:nonzero;"/>
        <path d="M44.842,35.653C43.187,37.879 41.397,41.254 42.878,44.671C43.538,46.202 44.703,47.322 45.863,48.319C47.397,49.632 49.045,50.688 50.621,51.925C51.876,52.912 53.142,54.099 53.805,55.741C54.594,57.678 54.8,58.395 54.293,60.44C54.113,61.224 54.055,61.74 54.53,62.323C55.153,63.099 56.3,63.207 57.077,62.566C57.377,62.323 57.576,61.975 57.617,61.578C57.654,61.193 57.524,60.81 57.296,60.5C56.86,59.996 56.118,59.931 55.608,60.339C55.406,60.5 55.287,60.73 55.255,60.997C55.223,61.257 55.308,61.502 55.466,61.71C55.608,61.878 55.799,61.975 56.006,61.994L56.142,61.993L56.137,61.989L56.265,61.967C56.402,61.906 56.045,61.746 55.887,61.772C55.781,61.737 55.682,61.684 55.612,61.589C55.466,61.431 55.415,61.216 55.434,61.012C55.451,60.805 55.552,60.618 55.72,60.469C56.151,60.121 56.795,60.188 57.141,60.623C57.365,60.894 57.465,61.219 57.432,61.563C57.402,61.903 57.241,62.215 56.965,62.433C56.591,62.742 56.115,62.849 55.665,62.775C54.165,62.277 54.466,60.963 54.786,60.094C55.427,58.126 55.936,56.689 55.525,54.273C55.066,51.605 53.44,49.411 51.488,47.863C49.549,46.32 46.943,44.864 45.898,42.218C45.443,41.067 45.053,39.514 45.195,38.331C45.327,37.203 45.814,36.199 46.299,35.296C47.047,33.913 47.931,32.623 48.895,31.454C47.396,32.63 46.019,34.063 44.842,35.653Z" style="fill:rgb(82,82,84);fill-rule:nonzero;"/>
        <path d="M53.104,34.707C53.104,40.723 48.224,45.601 42.209,45.601C36.191,45.601 31.314,40.723 31.314,34.707C31.314,28.691 36.191,23.813 42.209,23.813C48.224,23.813 53.104,28.691 53.104,34.707Z" style="fill:rgb(106,107,110);fill-rule:nonzero;"/>
        <path d="M34.938,40.709C35.147,42.47 34.571,43.973 33.65,44.068C32.724,44.162 31.806,42.813 31.595,41.053C31.384,39.293 31.96,37.79 32.883,37.695C33.807,37.601 34.725,38.95 34.938,40.709Z" style="fill:rgb(250,223,197);fill-rule:nonzero;"/>
        <path d="M53.029,41.031C52.841,42.793 51.938,44.154 51.013,44.069C50.088,43.983 49.493,42.487 49.684,40.726C49.872,38.963 50.774,37.603 51.699,37.688C52.623,37.772 53.218,39.269 53.029,41.031Z" style="fill:rgb(250,223,197);fill-rule:nonzero;"/>
        <path d="M51.437,40.76C51.437,47.013 45.757,53.473 42.33,53.473C38.473,53.473 33.186,47.013 33.186,40.76C33.186,34.506 35.543,27.353 42.312,27.353C49.68,27.353 51.437,34.506 51.437,40.76Z" style="fill:rgb(245,210,179);fill-rule:nonzero;"/>
        <path d="M48.877,28.179C48.877,28.179 49.046,32.758 35.182,38.312C32.652,39.655 31.251,44.538 35.019,47.652C30.923,46.177 26.497,30.774 39.115,24.384C41.902,23.401 48.877,28.179 48.877,28.179Z" style="fill:rgb(106,107,110);fill-rule:nonzero;"/>
        <path d="M44.525,31.459C44.525,31.459 49.385,38.186 51.307,37.734C53.23,37.28 52.606,34.567 52.606,34.567L49.838,28.631L47.69,27.783L44.525,31.459Z" style="fill:rgb(106,107,110);fill-rule:nonzero;"/>
        <path d="M43.663,46.476C43.581,46.369 43.356,46.376 43.331,46.378C43.19,46.385 43.102,46.432 43.011,46.48L42.976,46.499C42.779,46.603 42.6,46.69 42.396,46.688C42.192,46.69 42.013,46.603 41.816,46.499L41.781,46.48C41.69,46.432 41.601,46.385 41.461,46.378C41.437,46.376 41.212,46.369 41.131,46.476L41.124,46.626L41.352,46.722C41.441,46.725 41.582,46.715 41.744,46.654C41.912,46.741 42.133,46.851 42.389,46.852L42.402,46.852C42.66,46.851 42.881,46.741 43.048,46.654C43.21,46.715 43.352,46.725 43.439,46.722C43.53,46.723 43.624,46.707 43.668,46.626L43.663,46.476Z" style="fill:rgb(204,168,132);fill-rule:nonzero;"/>
        <path d="M41.354,47.998C41.897,48.149 42.095,48.319 42.412,48.322C42.695,48.329 42.747,48.137 43.295,48.013C43.64,47.936 44.551,48.195 45.093,47.711C43.881,49.892 43.454,49.948 42.361,49.962C41.325,49.978 40.832,49.697 39.687,47.698C39.831,47.958 40.918,47.924 41.354,47.998Z" style="fill:rgb(231,106,91);fill-rule:nonzero;"/>
        <path d="M50.982,39.209C50.982,39.209 50.151,38.196 48.884,38.295C47.619,38.395 43.98,39.481 44.286,40.683C44.354,40.922 45.084,40.351 45.387,40.139C45.727,39.899 48.806,37.925 50.982,39.209Z" style="fill:rgb(55,60,61);fill-rule:nonzero;"/>
        <path d="M49.293,41.409C49.325,41.677 48.723,42.467 47.513,42.494C46.297,42.52 45.954,42.311 45.707,42.348C45.48,42.383 45.031,42.455 44.931,42.55C44.786,42.686 44.374,42.703 44.588,42.339C44.805,41.977 45.371,40.685 46.928,40.57C48.485,40.456 49.26,41.14 49.293,41.409Z" style="fill:white;fill-rule:nonzero;"/>
        <path d="M45.73,42.341C45.979,42.303 46.321,42.513 47.537,42.486C48.644,42.462 49.308,41.652 49.302,41.449C49.296,41.246 49.083,41.102 49.083,41.102C49.083,41.102 49.35,41.15 49.391,41.345C49.444,41.581 49.363,41.769 49.23,41.925C49.049,42.132 48.525,42.617 47.539,42.639C46.754,42.655 46.314,42.574 46.051,42.524C45.911,42.498 45.818,42.481 45.753,42.492C45.617,42.513 45.422,42.393 45.422,42.393C45.536,42.371 45.648,42.353 45.73,42.341Z" style="fill:rgb(215,194,175);fill-rule:nonzero;"/>
    </g>
    <g transform="matrix(16.0449,0,0,16.042,-273.646,-302.039)">
        <path d="M46.259,41.438C46.253,41.967 46.675,42.4 47.204,42.407C47.732,42.413 48.166,41.99 48.172,41.462C48.179,40.934 47.756,40.499 47.228,40.493C46.699,40.487 46.266,40.911 46.259,41.438Z" style="fill:rgb(6,126,142);fill-rule:nonzero;"/>
    </g>
    <g transform="matrix(16.0449,0,0,16.042,-273.646,-302.039)">
        <path d="M46.917,41.339C46.915,41.501 47.044,41.634 47.206,41.637C47.369,41.638 47.502,41.508 47.503,41.346C47.506,41.184 47.377,41.051 47.214,41.049C47.051,41.047 46.919,41.177 46.917,41.339Z" style="fill:rgb(30,9,58);fill-rule:nonzero;"/>
    </g>
    <g transform="matrix(16.0449,0,0,16.042,-273.646,-302.039)">
        <path d="M47.099,41.261L47.224,41.389L47.351,41.265L47.226,41.136L47.099,41.261Z" style="fill:rgb(243,243,244);fill-rule:nonzero;"/>
    </g>
    <g transform="matrix(16.0449,0,0,16.042,-273.646,-302.039)">
        <path d="M47.055,41.475L47.101,41.523L47.148,41.477L47.103,41.427L47.055,41.475Z" style="fill:rgb(243,243,244);fill-rule:nonzero;"/>
    </g>
    <g transform="matrix(16.0449,0,0,16.042,-273.646,-302.039)">
        <path d="M47.214,41.51L47.262,41.558L47.309,41.511L47.262,41.463L47.214,41.51Z" style="fill:rgb(243,243,244);fill-rule:nonzero;"/>
    </g>
    <g transform="matrix(16.0449,0,0,16.042,-273.646,-302.039)">
        <path d="M49.502,41.379L49.502,41.377L49.505,41.377L49.502,41.379ZM44.433,42.749C44.433,42.749 46.177,40.076 49.022,41.09C49.124,41.15 49.213,41.22 49.265,41.3C49.314,41.407 49.387,41.741 48.706,42.25L48.697,42.255L48.552,42.344C49.169,42.051 49.453,42.688 49.453,42.688C49.394,42.421 49.206,42.196 48.947,42.194L49.019,42.138C49.481,42.067 49.696,42.55 49.696,42.55C49.63,42.251 49.407,42.009 49.099,42.064L49.224,41.93C49.769,41.825 50.021,42.391 50.021,42.391C49.94,42.034 49.66,41.746 49.282,41.858L49.397,41.675L49.4,41.669C49.978,41.519 50.244,42.12 50.244,42.12C50.16,41.737 49.847,41.436 49.428,41.616L49.493,41.432C49.961,41.243 50.276,41.708 50.276,41.708C50.227,41.588 50.149,41.482 50.054,41.409C50.646,41.387 51.069,40.869 51.204,40.252C51.204,40.252 50.67,41.299 49.671,41.236L49.634,41.163C50.434,41.218 50.793,40.45 50.803,39.701C50.803,39.701 50.524,40.975 49.353,40.964L49.238,40.905C50.024,40.854 50.373,40.123 50.297,39.386C50.297,39.386 50.187,40.493 49.251,40.761C49.82,40.564 50.068,39.936 50.004,39.301C50.004,39.301 49.899,40.35 49.032,40.653C49.428,40.381 49.597,39.851 49.541,39.315C49.541,39.315 49.44,40.342 48.598,40.658L48.565,40.648C48.98,40.439 49.159,39.937 49.107,39.431C49.107,39.431 49.022,40.286 48.333,40.575C48.567,40.353 48.664,39.991 48.627,39.626C48.627,39.626 48.567,40.223 48.126,40.537L48.03,40.518C48.145,40.347 48.192,40.117 48.169,39.886C48.169,39.886 48.133,40.24 47.897,40.493L47.776,40.476C47.841,40.325 47.865,40.147 47.845,39.969C47.845,39.969 47.82,40.231 47.663,40.467L47.505,40.45C47.552,40.313 47.567,40.16 47.55,40.006C47.55,40.006 47.528,40.227 47.403,40.443L47.238,40.439L47.25,40.191C47.25,40.191 47.238,40.308 47.179,40.441L47.057,40.447L47.061,40.242C47.061,40.242 47.052,40.335 47.008,40.452L46.883,40.464L46.879,40.321L46.847,40.469L46.705,40.492L46.688,40.496L46.684,40.372L46.656,40.503C45.076,40.838 44.518,42.312 44.433,42.749Z" style="fill:rgb(55,60,61);fill-rule:nonzero;"/>
    </g>
    <g transform="matrix(16.0449,0,0,16.042,-273.646,-302.039)">
        <path d="M33.658,39.209C33.658,39.209 34.489,38.196 35.756,38.295C37.022,38.395 40.662,39.481 40.354,40.683C40.287,40.922 39.556,40.351 39.253,40.139C38.914,39.899 35.834,37.925 33.658,39.209Z" style="fill:rgb(55,60,61);fill-rule:nonzero;"/>
    </g>
    <g transform="matrix(16.0449,0,0,16.042,-273.646,-302.039)">
        <path d="M35.348,41.409C35.315,41.677 35.917,42.467 37.127,42.494C38.343,42.52 38.686,42.311 38.934,42.348C39.161,42.383 39.608,42.455 39.71,42.55C39.855,42.686 40.267,42.703 40.051,42.339C39.835,41.977 39.27,40.685 37.711,40.57C36.155,40.456 35.381,41.14 35.348,41.409Z" style="fill:white;fill-rule:nonzero;"/>
    </g>
    <g transform="matrix(16.0449,0,0,16.042,-273.646,-302.039)">
        <path d="M38.911,42.341C38.662,42.303 38.318,42.513 37.105,42.486C35.996,42.462 35.332,41.652 35.339,41.449C35.344,41.246 35.557,41.102 35.557,41.102C35.557,41.102 35.29,41.15 35.249,41.345C35.197,41.581 35.277,41.769 35.412,41.925C35.59,42.132 36.115,42.617 37.101,42.639C37.887,42.655 38.326,42.574 38.588,42.524C38.73,42.498 38.822,42.481 38.887,42.492C39.022,42.513 39.218,42.393 39.218,42.393C39.104,42.371 38.993,42.353 38.911,42.341Z" style="fill:rgb(215,194,175);fill-rule:nonzero;"/>
    </g>
    <g transform="matrix(16.0449,0,0,16.042,-273.646,-302.039)">
        <path d="M38.381,41.438C38.387,41.967 37.965,42.4 37.437,42.407C36.908,42.413 36.474,41.99 36.468,41.462C36.462,40.934 36.884,40.499 37.412,40.493C37.94,40.487 38.375,40.911 38.381,41.438Z" style="fill:rgb(6,126,142);fill-rule:nonzero;"/>
    </g>
    <g transform="matrix(16.0449,0,0,16.042,-273.646,-302.039)">
        <path d="M37.723,41.339C37.725,41.501 37.595,41.634 37.434,41.637C37.271,41.638 37.138,41.508 37.136,41.346C37.133,41.184 37.264,41.051 37.426,41.049C37.589,41.047 37.721,41.177 37.723,41.339Z" style="fill:rgb(30,9,58);fill-rule:nonzero;"/>
    </g>
    <g transform="matrix(16.0449,0,0,16.042,-273.646,-302.039)">
        <path d="M37.541,41.261L37.416,41.389L37.29,41.265L37.414,41.136L37.541,41.261Z" style="fill:rgb(243,243,244);fill-rule:nonzero;"/>
    </g>
    <g transform="matrix(16.0449,0,0,16.042,-273.646,-302.039)">
        <path d="M37.586,41.475L37.539,41.523L37.491,41.477L37.538,41.427L37.586,41.475Z" style="fill:rgb(243,243,244);fill-rule:nonzero;"/>
    </g>
    <g transform="matrix(16.0449,0,0,16.042,-273.646,-302.039)">
        <path d="M37.426,41.51L37.378,41.558L37.332,41.511L37.378,41.463L37.426,41.51Z" style="fill:rgb(243,243,244);fill-rule:nonzero;"/>
    </g>
    <g transform="matrix(16.0449,0,0,16.042,-273.646,-302.039)">
        <path d="M35.135,41.377L35.138,41.377L35.138,41.378L35.135,41.377ZM37.983,40.503L37.957,40.372L37.952,40.496L37.936,40.492L37.793,40.469L37.76,40.321L37.757,40.464L37.632,40.452C37.588,40.335 37.579,40.242 37.579,40.242L37.583,40.447L37.461,40.441C37.403,40.308 37.39,40.191 37.39,40.191L37.403,40.439L37.237,40.443C37.112,40.227 37.09,40.006 37.09,40.006C37.073,40.16 37.088,40.313 37.135,40.45L36.978,40.467C36.819,40.231 36.795,39.969 36.795,39.969C36.776,40.147 36.799,40.325 36.864,40.476L36.744,40.493C36.507,40.24 36.472,39.886 36.472,39.886C36.448,40.117 36.495,40.347 36.61,40.518L36.514,40.537C36.073,40.223 36.013,39.626 36.013,39.626C35.976,39.991 36.074,40.353 36.308,40.575C35.617,40.286 35.533,39.431 35.533,39.431C35.481,39.937 35.661,40.439 36.075,40.648L36.042,40.658C35.201,40.342 35.1,39.315 35.1,39.315C35.043,39.851 35.212,40.381 35.608,40.653C34.741,40.35 34.636,39.301 34.636,39.301C34.571,39.936 34.82,40.564 35.389,40.761C34.453,40.493 34.343,39.386 34.343,39.386C34.267,40.123 34.616,40.854 35.402,40.905L35.287,40.964C34.116,40.975 33.837,39.701 33.837,39.701C33.847,40.45 34.206,41.218 35.007,41.163L34.968,41.236C33.97,41.299 33.437,40.252 33.437,40.252C33.571,40.869 33.994,41.387 34.586,41.409C34.491,41.482 34.413,41.588 34.364,41.708C34.364,41.708 34.679,41.243 35.147,41.432L35.212,41.616C34.793,41.436 34.48,41.737 34.396,42.12C34.396,42.12 34.662,41.519 35.24,41.669L35.243,41.675L35.358,41.858C34.981,41.746 34.699,42.034 34.619,42.391C34.619,42.391 34.871,41.825 35.416,41.93L35.542,42.064C35.234,42.009 35.009,42.251 34.944,42.55C34.944,42.55 35.16,42.067 35.622,42.138L35.693,42.194C35.434,42.196 35.247,42.421 35.187,42.688C35.187,42.688 35.471,42.051 36.088,42.344L35.942,42.255L35.935,42.25C35.254,41.741 35.326,41.407 35.376,41.3C35.427,41.22 35.516,41.15 35.619,41.09C38.463,40.076 40.207,42.749 40.207,42.749C40.122,42.312 39.564,40.838 37.983,40.503Z" style="fill:rgb(55,60,61);fill-rule:nonzero;"/>
    </g>
</svg>
