<?xml version="1.0" encoding="UTF-8" standalone="no"?>
<!DOCTYPE svg PUBLIC "-//W3C//DTD SVG 1.1//EN" "http://www.w3.org/Graphics/SVG/1.1/DTD/svg11.dtd">
<svg width="100%" height="100%" viewBox="0 0 256 256" version="1.1" xmlns="http://www.w3.org/2000/svg" xmlns:xlink="http://www.w3.org/1999/xlink" xml:space="preserve" xmlns:serif="http://www.serif.com/" style="fill-rule:evenodd;clip-rule:evenodd;stroke-linejoin:round;stroke-miterlimit:2;">
    <g transform="matrix(0.32,0,0,0.32,0,0)">
        <g transform="matrix(0.2,0,0,0.2,0,-65.7)">
            <path d="M2561.64,1390.36C2552.53,1384.41 2541.61,1381.8 2531.54,1378.04C2522.68,1374.7 2513.22,1369 2505.27,1362.93C2488.4,1350.25 2473.54,1333.51 2459.28,1317.79C2444.11,1301.05 2430.58,1285.03 2421.78,1264.03C2416.75,1252.14 2408.25,1242.19 2394.96,1239.83C2382.71,1237.7 2369.24,1240.86 2357.04,1242.19L2317.48,1246.56C2313.9,1246.92 2310.57,1248.2 2307.84,1250.14C2301.89,1249.84 2296.31,1257.72 2299.22,1264.28C2316.09,1302.87 2309.29,1346.79 2277.99,1375.92C2263.85,1389.08 2246.25,1397.52 2227.44,1401.52C2207.67,1405.71 2185.22,1410.08 2174.54,1429.49C2162.89,1450.85 2170.72,1477.73 2175.93,1499.81C2181.51,1523.35 2188.25,1546.9 2197.05,1569.41C2206.09,1592.64 2216.58,1615.27 2228.6,1637.06C2240.07,1657.81 2252.5,1678.5 2268.16,1696.4C2283.87,1714.42 2303.41,1728.61 2326.71,1734.92C2349.82,1741.29 2374.88,1740.69 2398.06,1734.68C2443.99,1722.79 2481.42,1688.99 2509.28,1651.92C2537,1615.03 2558.91,1573.05 2571.4,1528.57C2577.9,1505.58 2581.9,1481.91 2583.78,1458.13C2585.78,1432.4 2585.48,1406.01 2561.64,1390.36Z" style="fill:rgb(249,169,138);fill-rule:nonzero;"/>
            <path d="M2212.58,1233.09C2204.15,1214.77 2190.01,1200.33 2177.87,1184.49C2167.26,1170.66 2160.34,1155.67 2156.76,1138.56C2148.99,1100.88 2159.43,1061.93 2171.38,1026.31C2184.61,986.998 2198.26,948.471 2204.63,907.273C2211.18,865.044 2212.52,822.148 2207.73,779.616C2206.33,766.874 2204.39,754.254 2202.02,741.694C2201.66,737.205 2200.81,732.836 2199.41,728.71C2198.56,724.827 2197.71,721.005 2196.8,717.122C2194.86,709.052 2188.8,705.473 2182.42,705.29C2182.12,705.048 2181.82,704.745 2181.46,704.501C2151.91,684.237 2110.16,702.681 2082.43,717.668C2023.95,749.158 1980.14,804.006 1953.99,864.316C1885.55,1022.31 1939.24,1195.11 1977.29,1353.41C1987.36,1395.33 1996.58,1437.56 2002.65,1480.34C2005.68,1501.57 2007.68,1522.93 2008.66,1544.35C2009.57,1565.04 2009.32,1585.79 2011.51,1606.36C2015.27,1643.18 2027.1,1680.8 2057.25,1704.65C2086.74,1727.88 2125.7,1728.61 2157.19,1708.59C2189.89,1687.78 2208.09,1653.26 2214.76,1615.88C2222.41,1573.53 2221.01,1529.48 2222.23,1486.65C2223.56,1441.38 2224.84,1396.18 2226.17,1350.98C2227.32,1311.24 2229.63,1270.16 2212.58,1233.09Z" style="fill-rule:nonzero;"/>
            <path d="M2522.61,1044.02C2522.61,1188.5 2408.28,1305.63 2267.24,1305.63C2126.2,1305.63 2011.86,1188.5 2011.86,1044.02C2011.86,899.53 2126.2,782.401 2267.24,782.401C2408.28,782.401 2522.61,899.53 2522.61,1044.02Z" style="fill:rgb(254,175,138);fill-rule:nonzero;"/>
            <path d="M2178.91,729.621C2176.18,726.587 2170.84,728.528 2169.8,731.926C2123.21,728.953 2082.31,765.479 2052.95,797.575C2023.28,830.096 1999.98,867.714 1983.11,908.305C1949.74,988.758 1943.25,1082.74 1970.92,1165.86C1986.87,1213.74 2015.51,1260.03 2061.93,1283.27C2069.88,1287.27 2082.01,1282.54 2081.16,1272.16C2077.7,1227.99 2063.2,1186.55 2049.79,1144.69C2037.29,1105.8 2027.04,1065.39 2030.74,1024.19C2032.5,1005.32 2037.84,986.573 2047.37,970.131C2057.32,953.021 2071.15,938.702 2085.77,925.597C2115.2,899.325 2148.57,877.3 2172.35,845.325C2196.56,812.683 2208.94,762.688 2178.91,729.621Z" style="fill-rule:nonzero;"/>
            <path d="M3190.65,1868.45C3186.72,1833.72 3179.19,1798.93 3161.84,1768.22C3145.73,1739.7 3121.25,1716.77 3093.01,1700.45C3018.69,1657.5 2930.67,1662.68 2848.25,1669.06C2832.77,1670.25 2832.64,1694.53 2848.25,1693.33C2919.55,1687.81 2996.24,1681.35 3063.1,1712.26C3089.89,1724.64 3115.02,1742.48 3132.23,1766.79C3151.69,1794.27 3160.84,1827.27 3165.37,1860.27C3175.36,1932.96 3171.54,2008.68 3163.16,2081.32C3154.34,2157.71 3138.13,2233.15 3118.59,2307.47C3096.67,2390.83 3070.35,2472.94 3043.9,2554.94C3039.1,2569.84 3062.52,2576.22 3067.3,2561.4C3116.06,2410.23 3164.54,2257.9 3185.15,2099.86C3195.09,2023.62 3199.32,1945.04 3190.65,1868.45Z" style="fill-rule:nonzero;"/>
            <path d="M0,2513.97L152.22,2513.97C154.04,2522.04 155.8,2530.17 157.5,2538.24L0,2538.24L0,2513.97Z" style="fill-rule:nonzero;"/>
            <path d="M4000,2513.97L1237.8,2513.97C1239.25,2522.04 1240.77,2530.17 1242.23,2538.24L4000,2538.24L4000,2513.97Z" style="fill-rule:nonzero;"/>
            <path d="M2567.12,2601.3C2561.28,2599.7 2553.3,2603.28 2552.19,2609.78C2531.48,2730.35 2505.09,2849.92 2473,2967.98C2463.85,3001.64 2454.23,3035.17 2444.17,3068.57C2439.66,3083.56 2463.08,3089.96 2467.57,3075.02C2502.84,2957.88 2532.57,2839.09 2556.51,2719.12C2563.34,2684.91 2569.69,2650.61 2575.59,2616.23C2576.7,2609.78 2573.87,2603.16 2567.12,2601.3Z" style="fill-rule:nonzero;"/>
            <path d="M2449.48,3061.28C2326.4,3058.28 2203.39,3052.71 2080.54,3044.51C1957.69,3036.32 1835.02,3025.52 1712.63,3012.13C1643.98,3004.61 1575.41,2996.27 1506.95,2987.14C1500.45,2986.27 1494.82,2993.34 1494.82,2999.27C1494.82,3006.55 1500.43,3010.54 1506.95,3011.41C1628.99,3027.69 1751.37,3041.42 1873.98,3052.53C1996.6,3063.65 2119.45,3072.16 2242.43,3078.07C2311.41,3081.39 2380.44,3083.87 2449.48,3085.55C2465.11,3085.94 2465.1,3061.67 2449.48,3061.28Z" style="fill-rule:nonzero;"/>
            <path d="M1659.36,2557.01C1617.31,2670.68 1575.26,2784.34 1533.21,2898.01C1521.3,2930.21 1509.38,2962.42 1497.47,2994.62C1492.04,3009.29 1515.49,3015.62 1520.87,3001.08C1562.92,2887.41 1604.97,2773.75 1647.02,2660.08C1658.93,2627.88 1670.85,2595.67 1682.76,2563.47C1688.19,2548.8 1664.74,2542.47 1659.36,2557.01Z" style="fill-rule:nonzero;"/>
            <path d="M2562.23,2595.93C2447.07,2591.65 2331.94,2586.59 2216.85,2580.73C2101.25,2574.84 1985.7,2568.16 1870.2,2560.67C1805.42,2556.47 1740.65,2552.02 1675.9,2547.32C1660.32,2546.19 1660.39,2570.46 1675.9,2571.59C1790.84,2579.93 1905.84,2587.49 2020.88,2594.25C2136.42,2601.04 2252.02,2607.03 2367.64,2612.22C2432.5,2615.13 2497.36,2617.79 2562.23,2620.2C2577.85,2620.78 2577.83,2596.51 2562.23,2595.93Z" style="fill-rule:nonzero;"/>
            <path d="M2487.06,2942.53C2366.54,2939.45 2246.08,2934.32 2125.75,2927.07C2005.41,2919.82 1885.2,2910.48 1765.19,2899.05C1697.18,2892.57 1629.24,2885.42 1561.38,2877.61C1554.86,2876.86 1549.24,2883.72 1549.24,2889.75C1549.24,2896.93 1554.84,2901.13 1561.38,2901.88C1681.14,2915.65 1801.14,2927.38 1921.31,2937C2041.48,2946.62 2161.82,2954.15 2282.25,2959.58C2350.49,2962.66 2418.76,2965.06 2487.06,2966.8C2502.68,2967.2 2502.67,2942.93 2487.06,2942.53Z" style="fill-rule:nonzero;"/>
            <path d="M1687.63,2950.76C1685.48,2944.11 1679.39,2940.99 1672.7,2942.29C1657.63,2945.2 1642.55,2948.12 1627.47,2951.03C1621.23,2952.24 1617.09,2960.06 1619,2965.96C1621.15,2972.62 1627.24,2975.73 1633.93,2974.44C1649,2971.52 1664.08,2968.6 1679.16,2965.69C1685.4,2964.48 1689.54,2956.66 1687.63,2950.76Z" style="fill-rule:nonzero;"/>
            <path d="M2375.02,3010.02C2361.49,2999.3 2346.02,2991.43 2329.04,2987.92C2322.84,2986.64 2315.63,2989.72 2314.11,2996.4C2312.73,3002.46 2315.94,3009.95 2322.59,3011.32C2328.34,3012.51 2333.94,3014.26 2339.39,3016.45C2342.72,3017.93 2345.99,3019.55 2349.13,3021.4C2350.93,3022.45 2352.7,3023.57 2354.43,3024.75C2355.29,3025.33 2356.14,3025.93 2356.99,3026.55C2357.36,3026.82 2357.74,3027.1 2358.11,3027.38C2358.44,3027.62 2358.57,3027.71 2358.62,3027.75C2360.97,3029.51 2363.29,3030.74 2366.43,3030.74C2369.41,3030.74 2372.97,3029.42 2375.02,3027.18C2377.14,3024.87 2378.71,3021.84 2378.57,3018.6C2378.44,3015.61 2377.48,3011.98 2375.02,3010.02Z" style="fill-rule:nonzero;"/>
            <path d="M2231.79,2827.47C2208.32,2833.87 2188.46,2810.82 2174.59,2795.57C2170.36,2790.92 2165.08,2790.95 2160.94,2793.36C2157.06,2794.05 2153.67,2796.68 2152.58,2801.85C2148.2,2822.69 2127.51,2837.61 2106.3,2831.64C2083.42,2825.2 2071.43,2802.13 2072.42,2779.56C2074.89,2722.55 2137.05,2696.57 2182.94,2679.57C2183.72,2680.39 2184.6,2681.12 2185.67,2681.61C2222.62,2698.56 2250.64,2733.9 2255.69,2774.72C2258.07,2793.93 2253.9,2821.44 2231.79,2827.47ZM2251.19,2703.62C2237.11,2685.3 2218.97,2670.31 2197.92,2660.66C2196.17,2659.85 2194.32,2659.42 2192.48,2659.3C2190.08,2655.26 2185.6,2652.81 2179.74,2654.96C2129.87,2673.32 2074.25,2696.43 2054.05,2750.14C2044.96,2774.33 2045.63,2803.82 2060.41,2825.69C2073.47,2845 2096.06,2858.97 2119.95,2857.16C2140.61,2855.6 2159.36,2843.09 2169.44,2825.37C2182.04,2837.79 2196.36,2848.59 2214.22,2851.65C2237.31,2855.61 2258.73,2845.04 2270.71,2825.06C2293.15,2787.62 2275.74,2735.56 2251.19,2703.62Z" style="fill:rgb(252,84,100);fill-rule:nonzero;"/>
            <path d="M1295.38,2857.45C1284.76,2798.96 1274.08,2740.47 1263.46,2681.98C1246.29,2587.57 1229.12,2493.1 1211.89,2398.69C1210.43,2390.62 1208.92,2382.49 1207.46,2374.42C1207.34,2373.88 1207.28,2373.27 1207.16,2372.72C1188.41,2269.58 1169.66,2166.5 1150.91,2063.41C1148.12,2048.12 1171.54,2041.63 1174.33,2056.98C1184.95,2115.47 1195.57,2173.96 1206.25,2232.45C1214.86,2279.77 1223.48,2327.1 1232.09,2374.42C1233.55,2382.49 1235,2390.62 1236.46,2398.69C1245.14,2446.38 1253.81,2494.01 1262.49,2541.7C1281.24,2644.79 1300.05,2747.93 1318.79,2851.02C1321.59,2866.31 1298.17,2872.8 1295.38,2857.45Z" style="fill-rule:nonzero;"/>
            <path d="M1300.16,2843.33C1164.37,2856.94 1027.22,2854.53 890.908,2855.8C753.251,2857.08 615.594,2858.36 477.937,2859.64L244.979,2861.81C229.37,2861.95 229.332,2886.22 244.979,2886.08C382.636,2884.8 520.293,2883.52 657.95,2882.24C795.395,2880.96 932.85,2880.08 1070.29,2878.34C1147.01,2877.37 1223.78,2875.25 1300.16,2867.6C1306.68,2866.94 1312.3,2862.49 1312.3,2855.46C1312.3,2849.41 1306.73,2842.67 1300.16,2843.33Z" style="fill-rule:nonzero;"/>
            <path d="M230.492,2876.5C217.992,2819.22 205.554,2761.95 193.116,2704.61C171.031,2602.86 148.886,2501.11 126.8,2399.36C126.739,2399.12 126.678,2398.94 126.678,2398.69C124.919,2390.62 123.159,2382.49 121.4,2374.42C101.074,2280.99 80.748,2187.55 60.483,2094.11C57.146,2078.82 80.566,2072.39 83.903,2087.62C96.341,2144.96 108.78,2202.23 121.218,2259.57C129.53,2297.85 137.903,2336.14 146.155,2374.42C147.975,2382.49 149.734,2390.62 151.434,2398.69C163.507,2454.09 175.521,2509.42 187.534,2564.82C209.68,2666.57 231.766,2768.32 253.851,2870.07C257.187,2885.3 233.768,2891.79 230.492,2876.5Z" style="fill-rule:nonzero;"/>
            <path d="M1163.18,2037.84C1022.46,2042.1 881.738,2046.36 741.014,2050.62C600.796,2054.87 460.578,2059.11 320.359,2063.36C241.171,2065.75 161.983,2068.15 82.794,2070.55C67.213,2071.02 67.146,2095.29 82.794,2094.82C223.518,2090.56 364.24,2086.3 504.963,2082.04C645.182,2077.79 785.4,2073.55 925.619,2069.3C1004.81,2066.9 1084,2064.51 1163.18,2062.11C1178.76,2061.64 1178.83,2037.37 1163.18,2037.84Z" style="fill-rule:nonzero;"/>
            <path d="M1008.2,2131.13C814.945,2132.51 621.72,2137.56 428.658,2146.31C374.36,2148.78 320.076,2151.54 265.806,2154.58C250.277,2155.45 250.176,2179.72 265.806,2178.85C458.763,2168.03 651.922,2160.87 845.152,2157.43C899.497,2156.46 953.848,2155.79 1008.2,2155.4C1023.81,2155.29 1023.85,2131.02 1008.2,2131.13Z" style="fill-rule:nonzero;"/>
            <path d="M894.101,2855.63C873.496,2741.56 852.89,2627.5 832.286,2513.43C826.373,2480.7 820.46,2447.97 814.547,2415.23C813.298,2408.32 805.593,2405.77 799.62,2406.76C720.969,2419.77 641.205,2425.23 561.511,2423.48C555.568,2423.35 548.541,2429.18 549.376,2435.61C563.615,2545.15 577.854,2654.69 592.092,2764.22C596.104,2795.09 600.117,2825.96 604.129,2856.83C604.974,2863.33 609.102,2868.97 616.264,2868.97C622.165,2868.97 629.25,2863.38 628.399,2856.83C614.161,2747.3 599.923,2637.76 585.685,2528.22C582.204,2501.44 578.723,2474.67 575.241,2447.89C648.159,2448.72 720.983,2443.37 793.038,2432.17C813.012,2542.74 832.986,2653.31 852.96,2763.88C858.873,2796.62 864.785,2829.35 870.698,2862.08C873.471,2877.43 896.864,2870.92 894.101,2855.63Z" style="fill-rule:nonzero;"/>
            <path d="M1139.41,2743.49C1139.33,2744.01 1139.18,2745.25 1139.14,2745.46C1138.99,2746.18 1138.82,2746.91 1138.64,2747.63C1138.36,2748.71 1138.05,2749.78 1137.7,2750.84C1137.49,2751.44 1137.27,2752.04 1137.04,2752.64C1136.18,2754.48 1135.23,2756.26 1134.13,2757.96C1133.73,2758.59 1133.31,2759.19 1132.89,2759.8C1134.29,2757.75 1132.2,2760.62 1132.02,2760.82C1130.78,2762.21 1129.44,2763.46 1128.06,2764.71C1127.83,2764.92 1127.71,2765.04 1127.58,2765.17C1127.42,2765.25 1127.23,2765.35 1126.93,2765.53C1125.93,2766.13 1124.98,2766.78 1123.96,2767.34C1123.11,2767.8 1122.24,2768.23 1121.35,2768.63C1121.06,2768.73 1120.66,2768.88 1120.52,2768.92C1118.47,2769.5 1116.48,2770.16 1114.37,2770.55C1114.08,2770.61 1113.34,2770.69 1112.93,2770.74C1111.99,2770.81 1111.05,2770.88 1110.11,2770.9C1109.33,2770.92 1108.56,2770.91 1107.79,2770.89C1107.44,2770.88 1105.03,2770.64 1104.59,2770.64C1102.9,2770.35 1101.22,2770 1099.58,2769.51C1098.48,2769.19 1097.39,2768.82 1096.32,2768.41C1096.2,2768.34 1096.17,2768.33 1096.01,2768.25C1094.11,2767.26 1092.28,2766.25 1090.51,2765.05C1090.32,2764.92 1090.2,2764.85 1090.13,2764.81C1090.01,2764.7 1089.94,2764.63 1089.79,2764.5C1088.83,2763.62 1087.87,2762.75 1086.97,2761.81C1086.53,2761.35 1086.11,2760.86 1085.69,2760.38C1085.65,2760.27 1084.48,2758.79 1084.37,2758.63C1083.34,2757.08 1082.52,2755.44 1081.6,2753.82C1081.47,2753.59 1081.4,2753.48 1081.31,2753.33C1081.29,2753.27 1081.29,2753.25 1081.25,2753.16C1080.92,2752.29 1080.6,2751.42 1080.32,2750.53C1079.71,2748.65 1079.3,2746.73 1078.92,2744.8C1078.86,2744.28 1078.67,2743.05 1078.65,2742.84C1078.6,2742.1 1078.57,2741.36 1078.56,2740.62C1078.54,2739.5 1078.56,2738.39 1078.62,2737.28C1078.64,2737.08 1078.8,2735.86 1078.86,2735.33C1079.15,2733.77 1079.47,2732.21 1079.94,2730.69C1080.18,2729.91 1080.46,2729.14 1080.75,2728.37C1081.03,2727.78 1081.33,2727.2 1081.65,2726.62C1082.07,2725.86 1082.55,2725.15 1082.99,2724.4C1083.25,2723.99 1083.52,2723.59 1083.8,2723.2C1083.83,2723.16 1083.84,2723.14 1083.88,2723.1C1085.29,2721.53 1086.76,2720.11 1088.29,2718.66C1088.48,2718.48 1088.57,2718.39 1088.68,2718.27C1088.82,2718.19 1088.92,2718.13 1089.14,2718C1090.02,2717.43 1090.87,2716.83 1091.77,2716.3C1092.67,2715.77 1093.61,2715.33 1094.52,2714.82C1094.75,2714.68 1094.87,2714.61 1095,2714.53C1095.13,2714.49 1095.23,2714.46 1095.43,2714.39C1097.4,2713.74 1099.36,2713.24 1101.36,2712.71C1101.57,2712.66 1101.66,2712.62 1101.79,2712.58C1101.92,2712.58 1101.98,2712.59 1102.16,2712.58C1103.17,2712.55 1104.17,2712.46 1105.19,2712.47C1105.81,2712.47 1106.43,2712.53 1107.05,2712.57C1107.38,2712.63 1108.53,2712.78 1108.93,2712.88C1109.92,2713.12 1110.86,2713.44 1111.83,2713.74C1111.85,2713.75 1111.85,2713.75 1111.87,2713.75C1112.45,2714.04 1113.02,2714.34 1113.58,2714.66C1117.53,2716.84 1122.28,2716.63 1125.98,2714.45C1127,2715.21 1127.97,2716.02 1129.1,2717.07C1130.52,2718.4 1131.83,2719.82 1133.11,2721.29C1133.35,2721.56 1133.49,2721.72 1133.62,2721.86C1133.72,2722.02 1133.83,2722.22 1134.02,2722.53C1134.52,2723.35 1135.08,2724.14 1135.57,2724.98C1136.06,2725.81 1136.48,2726.69 1136.96,2727.53C1137.15,2727.85 1137.27,2728.04 1137.37,2728.21C1137.42,2728.39 1137.48,2728.58 1137.59,2728.9C1138.32,2731.02 1138.89,2733.14 1139.35,2735.33C1139.37,2735.44 1139.38,2735.49 1139.4,2735.58C1139.5,2736.63 1139.58,2737.68 1139.6,2738.73C1139.64,2740.32 1139.54,2741.91 1139.41,2743.49ZM1116.24,2683.92C1111.48,2682.83 1106.1,2684.57 1103.19,2688.43C1089.43,2688.87 1075.76,2695.25 1066.72,2705.94C1051.54,2723.88 1050.37,2750.7 1063.12,2770.42C1076.28,2790.78 1102.13,2799.86 1125.32,2792.86C1148.39,2785.9 1163.84,2763.76 1163.88,2739.84C1163.93,2712.36 1142.23,2689.88 1116.24,2683.92Z" style="fill-rule:nonzero;"/>
            <path d="M405.977,2765.15C405.962,2765.28 405.964,2765.32 405.959,2765.4C405.903,2765.59 405.853,2765.75 405.771,2766.05C405.451,2767.19 405.232,2768.36 404.881,2769.5C404.714,2770.04 404.522,2770.58 404.332,2771.11C404.364,2770.89 403.403,2773.13 403.355,2773.22C403.053,2773.78 401.227,2776.48 401.297,2776.55C400.117,2777.94 398.819,2779.17 397.522,2780.46C397.392,2780.58 397.338,2780.64 397.244,2780.74C397.218,2780.76 397.218,2780.75 397.19,2780.78C396.497,2781.27 395.798,2781.75 395.078,2782.2C393.823,2782.99 392.511,2783.65 391.192,2784.31C391.396,2784.13 388.452,2785.38 387.708,2785.6C385.985,2786.12 384.221,2786.48 382.45,2786.79C381.906,2786.84 380.995,2786.95 380.768,2786.97C379.906,2787.02 379.043,2787.04 378.181,2787.04C377.318,2787.04 376.457,2787.02 375.595,2786.97C375.351,2786.96 374.365,2786.83 373.84,2786.77C372.444,2786.52 371.05,2786.25 369.684,2785.86C369.028,2785.67 368.38,2785.41 367.721,2785.23C367.273,2785.06 367.039,2784.98 366.901,2784.93C366.562,2784.77 366.218,2784.62 365.882,2784.45C364.322,2783.66 362.866,2782.72 361.408,2781.76C361.294,2781.68 361.252,2781.66 361.159,2781.6C361.103,2781.54 361.034,2781.46 360.879,2781.33C360.209,2780.73 359.537,2780.14 358.896,2779.5C358.128,2778.75 357.436,2777.93 356.693,2777.15C356.624,2777.08 356.506,2776.94 356.39,2776.79C355.188,2775.15 354.092,2773.42 353.134,2771.63C352.7,2770.82 352.303,2769.98 351.919,2769.15C351.833,2768.94 351.749,2768.72 351.71,2768.61C351.1,2766.7 350.461,2764.83 350.006,2762.88C349.801,2762 349.646,2761.11 349.461,2760.22C349.433,2760.08 349.421,2760.04 349.398,2759.93C349.395,2759.85 349.397,2759.81 349.386,2759.67C349.208,2757.49 349.111,2755.33 349.195,2753.14C349.229,2752.23 349.312,2751.33 349.373,2750.43C349.38,2750.36 349.382,2750.33 349.389,2750.27C349.47,2749.79 349.559,2749.3 349.661,2748.82C350.096,2746.68 350.718,2744.62 351.421,2742.55C351.492,2742.34 351.521,2742.24 351.539,2742.16C351.583,2742.07 351.601,2742.04 351.652,2741.94C352.242,2740.76 352.827,2739.6 353.516,2738.47C353.907,2737.83 354.333,2737.22 354.766,2736.6C354.956,2736.45 356.357,2734.8 356.592,2734.56C357.271,2733.86 357.995,2733.22 358.697,2732.55C358.952,2732.34 359.139,2732.18 359.284,2732.06C359.646,2731.81 360.007,2731.55 360.381,2731.32C361.178,2730.8 362.033,2730.38 362.831,2729.87C363.43,2729.58 363.732,2729.43 363.799,2729.38C364.048,2729.29 364.292,2729.19 364.544,2729.11C365.414,2728.83 366.298,2728.64 367.178,2728.39C367.258,2728.38 367.286,2728.37 367.355,2728.36C367.819,2728.33 368.284,2728.31 368.749,2728.32C369.045,2728.33 369.571,2728.4 369.94,2728.45C371.152,2728.86 373.198,2729.61 371.494,2728.79C375.647,2730.79 380.417,2730.73 384.112,2728.47C391.475,2731.86 397.809,2737.02 401.785,2743.99C402.385,2745.04 402.926,2746.13 403.453,2747.22C404.53,2749.45 403.823,2748.15 403.643,2747.66C404.415,2749.75 405.057,2751.87 405.54,2754.04C405.709,2754.8 405.847,2755.56 405.976,2756.33C406.002,2756.7 406.103,2757.66 406.123,2757.97C406.271,2760.36 406.239,2762.76 405.977,2765.15ZM427.841,2743.5C418.867,2715.42 390.822,2699.61 362.343,2699.43C356.751,2699.39 351.38,2703.78 350.377,2709.28C339.472,2715.35 330.793,2726.35 327.169,2738.68C321.078,2759.4 327.336,2784.73 344.126,2798.84C361.295,2813.26 386.029,2815.11 405.568,2804.2C426.847,2792.31 435.113,2766.26 427.841,2743.5Z" style="fill-rule:nonzero;"/>
            <path d="M978.004,2798.74C954.045,2769.61 912.991,2776.21 880.996,2784.08C865.837,2787.81 872.257,2811.22 887.447,2807.48C909.728,2802 941.842,2793.7 959.429,2814.24C975.515,2833.02 958.749,2858.76 943.875,2871.94C933.916,2880.76 922.441,2887.78 911.375,2895.11C898.411,2903.69 885.446,2912.27 872.482,2920.85C846.971,2937.74 821.461,2954.63 795.95,2971.51C766.675,2990.89 737.401,3010.26 708.126,3029.64C695.159,3038.22 707.301,3059.25 720.375,3050.6C778.925,3011.84 837.475,2973.09 896.022,2934.33C910.533,2924.73 925.166,2915.29 939.536,2905.48C951.402,2897.38 963.156,2888.63 972.308,2877.44C990.459,2855.26 997.503,2822.45 978.004,2798.74Z" style="fill-rule:nonzero;"/>
            <path d="M599.446,2780.03C554.989,2782.77 501.662,2790.3 482.859,2837.44C474.24,2859.05 476.87,2882.79 478.087,2905.42C479.244,2926.92 477.35,2947.28 469.699,2967.55C461.38,2989.58 446.86,3008.75 428.744,3023.65C416.672,3033.58 433.928,3050.66 445.905,3040.81C477.721,3014.65 497.626,2976.2 502.025,2935.39C506.213,2896.55 486.981,2846.15 527.249,2820.82C548.733,2807.31 574.794,2805.82 599.446,2804.3C614.962,2803.34 615.07,2779.06 599.446,2780.03Z" style="fill-rule:nonzero;"/>
            <path d="M827.347,3027.33L320.036,3027.33C304.42,3027.33 304.394,3051.6 320.036,3051.6L827.347,3051.6C842.962,3051.6 842.989,3027.33 827.347,3027.33Z" style="fill-rule:nonzero;"/>
            <path d="M435.82,4000C394.07,3940.52 366,3871.51 356.82,3799.3C347.58,3726.72 359.82,3651.69 392.07,3585.99C424.6,3519.72 478.48,3467.51 543.63,3433.41C613.36,3396.91 691.1,3380.71 768.98,3373.99C856.85,3366.4 945.43,3369.27 1033.53,3367.24C1122.86,3365.19 1212.15,3361.09 1301.3,3354.96C1478.52,3342.78 1655.17,3322.56 1830.54,3294.27C1910.17,3281.42 1994.86,3271.25 2067.1,3232.95C2126.23,3201.61 2178.89,3145.29 2183.42,3075.63C2183.43,3075.43 2183.45,3075.23 2183.47,3075.03C2185.06,3060.1 2208.7,3060.24 2207.69,3075.63C2207.68,3075.86 2207.66,3076.09 2207.64,3076.32C2206.53,3092.53 2203.51,3108.55 2198.06,3123.88C2174.14,3191.26 2116.12,3239.56 2051.88,3266.93C1976.96,3298.85 1893.73,3308.79 1813.89,3321.35C1639.24,3348.82 1463.35,3368.51 1286.94,3380.2C1198.97,3386.04 1110.88,3389.89 1022.74,3391.75C935.89,3393.59 848.55,3390.77 761.96,3398.89C684.99,3406.11 607.51,3423.83 540.16,3463.04C477.21,3499.69 428.28,3555.26 401.98,3623.42C375.86,3691.12 371.4,3765.43 387.85,3836C401.74,3895.55 429.05,3951.31 465.78,4000L435.82,4000Z" style="fill-rule:nonzero;"/>
            <path d="M3754.59,2128.17C3753.25,2118.33 3740.32,2117.58 3734.31,2122.81C3707.91,2145.75 3685.4,2172.51 3664.94,2200.77C3661.09,2206.08 3664.03,2214.29 3669.29,2217.37C3675.42,2220.96 3682.04,2218.34 3685.9,2213.02C3700.21,2193.24 3715.8,2174.41 3733.04,2157.18C3734.57,2194.25 3727.76,2231.43 3713.71,2265.81C3711.23,2271.88 3716.4,2279.15 3722.18,2280.74C3729.14,2282.65 3734.62,2278.36 3737.11,2272.26C3755.79,2226.55 3761.23,2176.97 3754.59,2128.17Z" style="fill:rgb(251,189,97);fill-rule:nonzero;"/>
            <path d="M3543.25,2222.58C3522.64,2189.9 3489.8,2165.92 3452.18,2156.84C3445.18,2155.15 3436.02,2160.36 3436.82,2168.54C3441.04,2212.03 3454.21,2253.97 3476.15,2291.81C3483.99,2305.31 3504.97,2293.11 3497.11,2279.56C3480.38,2250.71 3468.88,2218.96 3463.45,2186.07C3487.51,2195.8 3508.3,2212.63 3522.3,2234.83C3530.61,2248.01 3551.62,2235.84 3543.25,2222.58Z" style="fill:rgb(251,189,97);fill-rule:nonzero;"/>
            <path d="M3304.1,2474.66C3300.88,2467.56 3295.85,2461.43 3289.66,2456.82C3293.18,2451.78 3295.61,2446.02 3296.64,2439.83C3299.49,2422.84 3292.09,2407.13 3278.01,2397.36C3264.6,2388.08 3246.76,2386.38 3231.66,2392.14C3229.41,2376.12 3220.98,2361.08 3206.66,2352.28C3189.43,2341.78 3168.31,2343.06 3151.38,2352.22C3151.08,2344.75 3149.81,2337.35 3146.96,2330.19C3140.22,2313.39 3125.66,2299.31 3107.03,2297.61C3087.92,2295.85 3074.69,2306.77 3065.77,2321.52C3065.41,2321.15 3065.11,2320.73 3064.74,2320.3C3051.21,2306.11 3030.7,2301.62 3012.32,2308.23C2992.91,2315.21 2977.86,2331.04 2969.79,2349.79C2965.05,2360.77 2962.51,2372.3 2961.11,2384.07C2959.71,2383.34 2958.38,2382.62 2956.92,2382.01C2941.09,2375.58 2924.1,2379.4 2911.3,2390.5C2898.62,2401.48 2891.76,2419.2 2892.67,2435.89C2893.04,2443.9 2894.92,2451.48 2897.83,2458.76C2894.43,2459.43 2891.03,2460.34 2887.7,2461.85C2869.37,2470.11 2861,2489.89 2862.21,2509.3C2864.82,2551.89 2896.92,2591.09 2930.96,2614.08C2934.66,2616.57 2938.24,2616.63 2941.21,2615.3C2942.36,2618.33 2944.91,2620.82 2949.16,2621.73C3020.27,2636.9 3095.5,2652.79 3167.71,2634.84C3223.4,2621 3277.28,2586.17 3300.46,2531.93C3308.17,2513.91 3312.47,2493.22 3304.1,2474.66Z" style="fill:rgb(98,214,138);fill-rule:nonzero;"/>
            <path d="M3277.45,2067.03C3270.24,2067.03 3266.11,2072.63 3265.31,2079.17C3253.19,2179.4 3223.16,2277.43 3177.44,2367.42C3170.38,2381.31 3191.31,2393.61 3198.39,2379.67C3246.2,2285.57 3276.91,2183.92 3289.58,2079.17C3290.37,2072.65 3283.44,2067.03 3277.45,2067.03Z" style="fill:rgb(98,214,138);fill-rule:nonzero;"/>
            <path d="M3313.19,2144.65C3299.81,2171.31 3280.16,2193.97 3255.98,2210.25C3251.64,2213.17 3249.31,2218.24 3250.28,2223.17C3249.77,2223.49 3249.31,2223.85 3248.79,2224.16C3243.19,2227.55 3241.09,2235.05 3244.43,2240.77C3247.71,2246.37 3255.41,2248.53 3261.04,2245.12C3295.55,2224.24 3321.69,2191.88 3335.37,2154C3340.02,2141.13 3319.35,2132.39 3313.19,2144.65Z" style="fill:rgb(98,214,138);fill-rule:nonzero;"/>
            <path d="M3252.98,2215.94L3200.76,2130.91C3197.62,2125.79 3191.17,2123.5 3185.61,2125.94C3180.51,2128.18 3176.41,2134.52 3178.58,2140.26C3192.29,2176.51 3207.41,2212.23 3223.91,2247.3C3229.02,2258.16 3247.23,2252.87 3246.52,2241.17C3246.43,2239.64 3246.33,2238.11 3246.24,2236.58C3246.17,2235.46 3245.93,2234.38 3245.6,2233.33C3252.47,2231.27 3257.83,2223.84 3252.98,2215.94Z" style="fill:rgb(98,214,138);fill-rule:nonzero;"/>
            <path d="M3224.9,2275.43C3223.77,2274.83 3222.67,2274.2 3221.59,2273.51C3221.15,2273.22 3219.84,2272.21 3219.52,2272C3217.84,2270.56 3216.19,2269.11 3214.65,2267.5C3212.88,2265.65 3211.21,2263.71 3209.61,2261.71C3209.36,2261.41 3209.12,2261.1 3208.87,2260.79C3208.85,2260.76 3208.85,2260.75 3208.82,2260.72C3207.96,2259.53 3207.07,2258.37 3206.21,2257.18C3199.74,2248.3 3193.56,2238.83 3185.23,2231.55C3179.93,2226.93 3173.01,2221.29 3165.55,2221.77C3156.15,2222.38 3149.75,2230.7 3150.73,2239.91C3151.51,2247.25 3155.32,2253.65 3158.82,2260.03C3162.04,2265.89 3165.5,2271.62 3169.19,2277.2C3177.83,2290.25 3187.67,2302.56 3198.48,2313.87C3202.88,2318.46 3211.28,2318.63 3215.64,2313.87C3219.9,2309.23 3220.24,2302.5 3216.38,2297.63C3221.32,2298.55 3226.76,2296.74 3229.25,2292.03C3232.23,2286.4 3230.87,2278.63 3224.9,2275.43Z" style="fill:rgb(98,214,138);fill-rule:nonzero;"/>
            <path d="M3324.99,2260.98C3321.15,2257.14 3314.97,2256.42 3310.28,2259.08C3285.4,2273.23 3259.19,2288.6 3230.23,2292.07C3223.73,2292.85 3218.1,2297.09 3218.1,2304.21C3218.1,2304.69 3218.19,2305.19 3218.27,2305.68C3206.34,2309.02 3207.48,2329.36 3221.81,2329.44C3263.37,2329.69 3302.53,2309.09 3326.88,2275.68C3330.01,2271.4 3328.52,2264.51 3324.99,2260.98Z" style="fill:rgb(98,214,138);fill-rule:nonzero;"/>
            <path d="M2997.96,2381.67C2957.96,2310.07 2939.65,2227.99 2944.89,2146.18C2945.88,2130.58 2921.61,2130.64 2920.62,2146.18C2915.11,2232.1 2935.03,2318.78 2977.01,2393.92C2984.63,2407.55 3005.6,2395.33 2997.96,2381.67Z" style="fill:rgb(98,214,138);fill-rule:nonzero;"/>
            <path d="M2989.8,2157.61C2981.5,2157.46 2975.31,2162.95 2970.8,2169.29C2967,2174.64 2963.62,2180.34 2960.07,2185.85C2951.59,2199.01 2943.11,2212.17 2934.63,2225.32C2932.15,2229.16 2932.61,2234.49 2935.13,2238.3C2933.36,2242.73 2934.27,2248.4 2937.77,2251.61C2942.82,2256.25 2949.88,2256.15 2954.93,2251.61C2973.18,2235.18 2988.8,2215.55 3000.61,2194.01C3003.91,2187.99 3007.77,2181.57 3007.57,2174.48C3007.3,2164.77 2999.27,2157.77 2989.8,2157.61Z" style="fill:rgb(98,214,138);fill-rule:nonzero;"/>
            <path d="M2946.33,2236.31C2947.21,2232.4 2946.34,2228.16 2943.19,2225.22C2920.83,2204.37 2893.49,2189.24 2863.83,2181.73C2857.58,2180.14 2850.54,2183.73 2848.9,2190.2C2843.63,2211.05 2867.08,2222.06 2881.88,2230.21C2898.18,2239.19 2915.14,2246.9 2932.5,2253.58C2938.43,2255.87 2946.07,2251.06 2947.43,2245.11C2948.18,2241.79 2947.7,2238.8 2946.33,2236.31Z" style="fill:rgb(98,214,138);fill-rule:nonzero;"/>
            <path d="M3007.4,2247.31C3004.23,2244.15 2999.87,2243.22 2995.59,2244.19C2982.09,2247.26 2971.14,2256.25 2962.93,2267.05C2954.59,2278.01 2949.78,2291.14 2945.02,2303.93C2942.8,2309.89 2947.49,2317.49 2953.49,2318.86C2954.03,2318.98 2954.54,2319.01 2955.06,2319.07C2959.96,2322.8 2966.59,2322.66 2971.22,2318.3C2988.72,2301.8 3001.87,2281.5 3010.52,2259.12C3012.04,2255.19 3010.22,2250.14 3007.4,2247.31Z" style="fill:rgb(98,214,138);fill-rule:nonzero;"/>
            <path d="M2967.02,2308.95C2965.87,2304.74 2962.69,2301.86 2958.87,2300.71C2957.42,2299.23 2955.62,2298.05 2953.53,2297.4C2939.32,2292.97 2924.87,2289.33 2910.23,2286.61C2902.28,2285.13 2894.28,2283.94 2886.25,2282.92C2879.25,2282.02 2871.85,2280.55 2864.84,2282.08C2856.91,2283.8 2850.75,2290.49 2850.62,2298.77C2850.48,2307.12 2857.03,2313.6 2864.17,2316.73C2878.03,2322.82 2893.22,2325.89 2908.22,2327.36C2925.04,2329.01 2942.09,2327.62 2958.55,2323.87C2964.94,2322.42 2968.7,2315.06 2967.02,2308.95Z" style="fill:rgb(98,214,138);fill-rule:nonzero;"/>
            <path d="M3241.79,2591.15C3130.03,2590.42 3018.33,2591.88 2906.63,2595.58C2900.01,2595.76 2896.25,2600.25 2895.22,2605.35C2892.92,2607.96 2891.58,2611.54 2892.43,2615.91L2961.66,2963.08C2968.21,2995.72 2974.7,3028.37 2981.19,3061.01C2982.47,3067.38 2987.32,3069.93 2992.3,3069.68C3051.27,3096.2 3120.93,3093.1 3176.75,3059.98C3180.63,3057.67 3182.33,3054.21 3182.51,3050.75C3183.3,3049.6 3183.97,3048.21 3184.33,3046.57C3210.91,2933.96 3230.75,2819.83 3243.85,2704.85C3247.61,2672.15 3250.77,2639.33 3253.38,2606.5C3253.44,2605.89 3253.38,2605.41 3253.38,2604.86C3254.1,2598.37 3250.22,2591.15 3241.79,2591.15Z" style="fill-rule:nonzero;"/>
            <path d="M2890.97,1597.5C2881.14,1555.81 2868.7,1512.19 2843.89,1476.7C2831.88,1459.46 2817.01,1444.24 2798.93,1433.37C2779.15,1421.54 2756.58,1415.35 2734.07,1411.29C2676.07,1400.85 2617.27,1393.82 2558.97,1385.26C2558.72,1385.26 2558.48,1385.26 2558.24,1385.2C2552.11,1382.83 2544.59,1384.71 2542.95,1392.97C2527.42,1470.69 2509.82,1558.12 2443.14,1609.27C2414.5,1631.23 2375.19,1645.49 2339.45,1634.45C2301.71,1622.86 2277.02,1581.84 2258.69,1549.56C2235.33,1508.67 2219.68,1463.89 2211.73,1417.48C2212.34,1410.08 2206.27,1401.52 2196.62,1403.58C2150.09,1413.41 2103.37,1422.7 2057.01,1433.19C2014.6,1442.84 1974.19,1456.86 1940.22,1484.77C1872.38,1540.46 1843.93,1629.65 1822.93,1711.62C1809.65,1763.38 1800.24,1815.98 1794.23,1869.07C1794.05,1870.77 1794.36,1872.41 1795.08,1873.93C1796.18,1877.14 1798.54,1879.93 1802.55,1881.39C1872.44,1906.81 1949.01,1911.6 2021.58,1895.95C2033.71,1931.02 2045.67,1966.27 2054.58,2002.31C2064.35,2041.87 2069.57,2082.04 2069.81,2122.81C2070.3,2204.84 2052.71,2285.6 2029.22,2363.81C2016.06,2407.67 2000.95,2450.99 1985.9,2494.25C1983.54,2501.05 1987.24,2506.09 1992.46,2508.03C1993.06,2513.55 1996.88,2518.71 2004.04,2518.89C2184.37,2523.07 2364.69,2527.32 2545.01,2531.51C2567.16,2531.99 2589.3,2532.54 2611.51,2533.03C2630.56,2533.51 2653.43,2536.85 2664.66,2517.55C2669.33,2509.48 2671.09,2499.65 2673.46,2490.8C2676.31,2480.24 2679.1,2469.68 2681.89,2459.06C2687.78,2436.98 2693.48,2414.83 2699.18,2392.63C2721.09,2306.89 2741.78,2220.8 2761.13,2134.4C2777.69,2060.5 2793.29,1986.35 2807.91,1912.03C2832.18,1910.76 2856.39,1908.51 2880.48,1904.93C2880.9,1904.87 2881.26,1904.69 2881.63,1904.57C2887.94,1907.48 2896.07,1905.84 2897.71,1897.16C2916.27,1798.08 2914.21,1695.67 2890.97,1597.5Z" style="fill:rgb(98,214,138);fill-rule:nonzero;"/>
            <path d="M2040.08,2046.67C2039.72,2016.15 2037.84,1985.38 2036.26,1954.87C2035.41,1939.03 2034.44,1923.25 2033.41,1907.48C2032.32,1891.58 2031.59,1876.23 2027.46,1860.82C2026.49,1857.36 2022.85,1854.21 2019.15,1854.45C2011.87,1854.94 2003.19,1850.2 1996.1,1848.63C1988.57,1846.93 1981.05,1845.47 1973.4,1844.32C1959.15,1842.32 1944.77,1840.8 1930.39,1840.01C1902.23,1838.43 1874.2,1840.01 1846.11,1842.38C1846.11,1841.47 1846.05,1840.56 1846.05,1839.59C1845.87,1833.88 1837.62,1832.61 1835.98,1838.25C1835.31,1840.56 1834.7,1842.92 1834.16,1845.23C1829.12,1848.87 1828.15,1855.66 1830.76,1860.7C1822.57,1905.29 1826.82,1951.83 1830.82,1996.67C1835.55,2049.88 1842.35,2103.21 1843.5,2156.67C1844.65,2210 1838.1,2262.24 1820.45,2312.72C1802.36,2364.35 1777.79,2414.35 1753.1,2463.13C1745.64,2477.75 1738.23,2492.43 1730.83,2507.06C1724.76,2518.95 1713.42,2533.94 1718.27,2547.83C1723.49,2562.51 1743.27,2563.42 1756.13,2565.49C1772.15,2568.09 1788.23,2570.52 1804.31,2572.89C1810.5,2573.74 1816.81,2572.28 1820.14,2566.4C1843.14,2525.8 1882.09,2498.02 1912.24,2463.25C1943.19,2427.57 1968,2387.29 1986.87,2344.09C2027.89,2250.47 2041.12,2148.23 2040.08,2046.67Z" style="fill:rgb(254,175,138);fill-rule:nonzero;"/>
            <path d="M1831.31,2544.25C1818.87,2534.91 1804.31,2529.69 1789.56,2525.26C1773.42,2520.47 1757.28,2515.37 1740.78,2511.85C1711.48,2505.72 1678.41,2504.45 1656.63,2528.72C1637.21,2550.38 1631.99,2580.29 1628.05,2608.14C1623.44,2640.11 1630.05,2674.21 1651.83,2698.85C1672.58,2722.39 1714.57,2735.19 1739.51,2710.31C1751.88,2698 1754.01,2677.06 1753.89,2660.56C1753.83,2652.07 1753.77,2644.73 1757.04,2636.72C1758.13,2633.93 1759.59,2631.38 1761.23,2628.95C1770.33,2620.7 1778.7,2612.02 1791.32,2609.17C1797.03,2607.84 1799.69,2608.87 1800.54,2614.87C1801.33,2620.82 1797.75,2625.92 1794.66,2630.65C1786.89,2642.54 1779.92,2654.74 1783.13,2669.54C1786.29,2683.92 1800,2692.66 1814.38,2689.08C1828.76,2685.5 1839.68,2672.94 1847.57,2661.11C1856,2648.55 1861.16,2633.99 1862.98,2619.06C1866.44,2590.6 1854.18,2561.54 1831.31,2544.25Z" style="fill:rgb(254,175,138);fill-rule:nonzero;"/>
            <path d="M1731.39,2679.74C1729.05,2676.33 1726.94,2672.77 1725.11,2669.06C1724.65,2668.11 1724.22,2667.15 1723.78,2666.2C1723.64,2665.85 1723.5,2665.5 1723.36,2665.14C1722.67,2663.34 1722.04,2661.52 1721.47,2659.68C1720.25,2655.72 1719.41,2651.71 1718.72,2647.64C1718.71,2647.6 1718.71,2647.6 1718.71,2647.55C1718.61,2646.45 1718.49,2645.36 1718.41,2644.26C1718.25,2642.06 1718.19,2639.85 1718.2,2637.65C1718.24,2631.3 1712.6,2625.22 1706.07,2625.51C1699.47,2625.81 1693.97,2630.85 1693.94,2637.65C1693.84,2656.82 1699.56,2676.17 1710.43,2691.99C1714.02,2697.21 1721.25,2700.07 1727.04,2696.34C1732.23,2692.99 1735.24,2685.33 1731.39,2679.74Z" style="fill:rgb(249,169,138);fill-rule:nonzero;"/>
            <path d="M1681.68,2685.05C1680.52,2680.4 1679.53,2675.7 1678.77,2670.96C1678.64,2670.16 1678.53,2669.35 1678.41,2668.54C1678.38,2668.25 1678.14,2666.32 1678.1,2665.95C1677.85,2663.57 1677.64,2661.18 1677.49,2658.78C1676.88,2649.2 1677.14,2639.59 1678.2,2630.04C1678.9,2623.71 1672.12,2617.63 1666.06,2617.91C1658.89,2618.23 1654.68,2623.26 1653.93,2630.04C1651.66,2650.57 1653.28,2671.47 1658.28,2691.5C1659.81,2697.67 1667.07,2701.96 1673.2,2699.98C1679.58,2697.91 1683.32,2691.66 1681.68,2685.05Z" style="fill:rgb(249,169,138);fill-rule:nonzero;"/>
            <path d="M1858.45,2753.77C1811.64,2639.82 1764.82,2525.87 1718.01,2411.92C1716.02,2407.07 1712.06,2402.78 1706.31,2403.01C1694.93,2403.47 1684.84,2407.67 1676.8,2415.8C1672.26,2420.38 1672.55,2425.98 1675.19,2430.21C1675.31,2432.08 1675.75,2433.98 1676.56,2435.8C1726.37,2546.98 1776.19,2658.16 1826.01,2769.34C1830.18,2778.66 1842.1,2775.67 1846.96,2769.34C1847.02,2769.27 1847.08,2769.19 1847.14,2769.11C1848.06,2769.08 1849,2768.97 1849.98,2768.7C1855.71,2767.13 1860.96,2759.87 1858.45,2753.77Z" style="fill-rule:nonzero;"/>
            <path d="M1827.26,2771.49L1869.33,2824.73C1870.27,2825.92 1872.17,2825.05 1871.89,2823.56L1858.88,2755.15L1827.26,2771.49Z" style="fill:rgb(98,214,138);fill-rule:nonzero;"/>
            <path d="M2695.97,1446.84C2692.81,1401.58 2679.22,1357.96 2671.21,1313.48C2655.19,1224.17 2670.06,1132.98 2662.54,1043C2656.17,967.037 2631.77,895.563 2588.09,832.887C2547.68,774.822 2493.8,725.919 2430.7,693.641C2363.78,659.3 2271.62,633.938 2208.51,689.576C2202.63,694.794 2197.53,700.558 2193.16,706.747C2186.37,705.594 2178.84,708.445 2176.3,716.94C2164.28,756.742 2185.46,796.483 2216.83,820.328C2249.59,845.143 2291.03,854.366 2329.07,867.957C2346.61,874.206 2364.26,882.033 2378.52,894.289C2392.11,905.999 2402.55,923.23 2408.19,940.098C2414.02,957.511 2418.2,975.531 2421.36,993.612C2425.24,1015.64 2429.61,1037.48 2433.07,1059.5C2447.45,1150.45 2453.88,1242.37 2459.95,1334.17C2462.98,1380.35 2465.89,1426.58 2469.53,1472.75C2472.51,1509.94 2474.02,1551.69 2496.35,1583.36C2518.31,1614.49 2554.05,1626.26 2590.94,1620.07C2626.68,1614.12 2657.08,1590.4 2674.43,1559.09C2693.12,1525.17 2698.64,1485.01 2695.97,1446.84Z" style="fill-rule:nonzero;"/>
            <path d="M1808.56,1883.47C1808.56,1883.47 1889.72,1925.61 2049.82,1892.73L2031.43,1769.03L1835.7,1769.03L1808.56,1883.47Z" style="fill:rgb(98,214,138);fill-rule:nonzero;"/>
            <path d="M2248.16,945.956C2255.34,934.923 2265.85,928.486 2276.85,924.105C2279.64,923.114 2282.5,922.31 2285.4,921.701C2288.3,921.134 2291.3,921.021 2294.26,920.857C2300.25,920.929 2306.17,921.14 2312.06,921.591C2317.93,921.771 2323.77,922.702 2329.54,923.486C2335.27,924.896 2340.99,925.881 2346.46,927.947C2357.49,931.522 2367.73,937.001 2377.04,943.219L2375.98,945.401C2365.18,942.772 2354.79,940.029 2344.06,939.842C2333.5,939.105 2323.03,939.493 2312.78,940.993C2307.65,941.55 2302.61,943.202 2297.69,944.638C2292.75,946.131 2287.83,947.2 2282.68,947.663C2272.34,948.656 2261.88,949.383 2249.3,948.096L2248.16,945.956Z" style="fill-rule:nonzero;"/>
            <path d="M2331.77,999.688C2331.77,1009.51 2323.81,1017.47 2314,1017.47C2304.18,1017.47 2296.22,1009.51 2296.22,999.688C2296.22,989.869 2304.18,981.909 2314,981.909C2323.81,981.909 2331.77,989.869 2331.77,999.688Z" style="fill-rule:nonzero;"/>
            <path d="M2279.16,1001.07L2346.08,988.66C2346.08,988.66 2311.07,947 2279.16,1001.07Z" style="fill-rule:nonzero;"/>
            <path d="M2182.14,958.876C2170.9,964.672 2160.9,967.819 2150.91,970.676C2145.95,972.129 2140.98,972.933 2135.83,973.348C2130.73,973.812 2125.44,974.113 2120.46,975.471C2110.37,977.822 2100.48,981.291 2090.92,985.836C2081,989.934 2072.34,996.284 2063.24,1002.68L2061.46,1001.04C2067.85,991.846 2075.38,983.005 2084.34,975.641C2088.68,971.719 2093.64,968.71 2098.45,965.306C2103.54,962.466 2108.63,959.464 2114.04,957.149C2119.35,954.577 2124.79,952.215 2130.33,949.959C2133.15,949.03 2135.98,948.04 2138.89,947.504C2141.81,947.012 2144.76,946.715 2147.73,946.617C2159.57,946.672 2171.7,948.822 2182.42,956.466L2182.14,958.876Z" style="fill-rule:nonzero;"/>
            <path d="M2124.24,1037.05C2127.83,1046.19 2138.14,1050.69 2147.28,1047.1C2156.42,1043.51 2160.92,1033.19 2157.33,1024.05C2153.74,1014.91 2143.42,1010.41 2134.28,1014C2125.14,1017.59 2120.65,1027.91 2124.24,1037.05Z" style="fill-rule:nonzero;"/>
            <path d="M2173.71,1019.1L2106.89,1032.01C2106.89,1032.01 2124.24,980.439 2173.71,1019.1Z" style="fill-rule:nonzero;"/>
            <path d="M2240.13,1034.55C2241.46,1042.37 2242.17,1050.26 2241.84,1058.4C2241.33,1066.46 2239.59,1075 2234.99,1082.5C2232.82,1086.3 2229.95,1089.74 2226.67,1092.62C2225.12,1094.08 2223.25,1095.53 2221.43,1096.72C2219.64,1097.9 2217.91,1098.94 2216.2,1099.97C2212.81,1102 2209.47,1103.79 2206.45,1105.8C2203.41,1107.74 2200.63,1109.92 2198.97,1112.07C2197.23,1114.3 2196.81,1115.54 2197.33,1117.42C2197.96,1119.34 2199.89,1122.15 2202.11,1124.12C2206.59,1128.34 2213.5,1130.4 2220.76,1131.91C2228.25,1133.42 2234.88,1133.99 2241.82,1131.39C2248.74,1129.02 2255.51,1124.48 2262.83,1121.45C2256.93,1126.74 2251.58,1132.36 2244.35,1136.79C2240.72,1138.94 2236.49,1140.41 2232.17,1141.12C2227.82,1141.84 2223.47,1141.56 2219.5,1141.3C2211.4,1140.74 2202.43,1138.84 2194.75,1132.94C2192.8,1131.52 2191.22,1129.65 2189.75,1127.75C2188.98,1126.84 2188.24,1125.87 2187.65,1124.6C2187.08,1123.35 2186.3,1122.36 2185.98,1120.85C2185.09,1118.07 2184.93,1114.8 2185.7,1111.84C2186.49,1108.86 2187.95,1106.41 2189.55,1104.43C2192.85,1100.5 2196.52,1098.03 2200.08,1095.81C2203.66,1093.62 2207.21,1091.66 2210.67,1089.94C2214.22,1088.1 2217.2,1086.7 2219.83,1084.52C2222.54,1082.39 2225.06,1080.03 2227.15,1077.26C2235.81,1066.16 2237.67,1050.05 2240.13,1034.55Z" style="fill-rule:nonzero;"/>
            <rect x="1961.75" y="2513.97" width="787.97" height="24.27" style="fill-rule:nonzero;"/>
            <path d="M2840.43,1826.3C2827.14,1825.69 2813.67,1826.18 2800.51,1825.99C2782.43,1825.75 2764.29,1826.24 2746.14,1826.48C2728.49,1826.78 2709.68,1825.27 2692.27,1828.6C2676.92,1831.52 2665.33,1840.86 2656.89,1853.72C2648.58,1866.46 2643,1881.33 2637.11,1895.22C2630.26,1911.3 2623.89,1927.5 2618.18,1944C2607.08,1976.1 2597.8,2008.86 2590.27,2041.99C2586.21,2060.19 2582.63,2078.52 2579.72,2096.9C2578.69,2103.58 2577.23,2110.61 2576.14,2117.77C2560.42,2085.25 2543.98,2053.04 2528.93,2020.15C2508.91,1976.34 2490.77,1931.51 2472.45,1886.97C2454.37,1843.23 2438.29,1798.69 2421.12,1754.58C2404.01,1710.41 2387.44,1666 2371.54,1621.34C2356.56,1579.42 2338.66,1535.31 2340.66,1489.98C2341.63,1468.38 2348.97,1450 2359.77,1431.55C2370.03,1414.08 2380.89,1396.36 2383.44,1375.8C2387.81,1340.24 2362.87,1307.72 2331.26,1294.01C2296.31,1278.84 2257.96,1287.27 2228.29,1309.96C2211.79,1322.65 2198.08,1338.97 2188.07,1357.23C2176.96,1377.43 2168.89,1401.28 2173.51,1424.52C2177.33,1443.69 2191.47,1459.28 2211.12,1462.62C2217.25,1463.65 2223.26,1463.47 2228.9,1462.32C2227.5,1582.69 2239.28,1703.49 2262.39,1821.5C2287.09,1948.19 2325.55,2071.9 2376.34,2190.52C2401.64,2249.62 2430.16,2307.32 2461.65,2363.38C2477.42,2391.35 2494.35,2418.78 2511.88,2445.66C2528.33,2470.9 2543.98,2499.11 2568.86,2517.07C2593.79,2535.15 2624.25,2533.39 2647.97,2514.4C2671.51,2495.53 2686.99,2465.74 2702.28,2440.38C2736.13,2384.25 2763.8,2324.31 2787.28,2263.21C2834.24,2141.07 2860.76,2012.02 2867.86,1881.39C2868.52,1869.01 2869.01,1856.63 2869.19,1844.2C2869.31,1843.95 2869.31,1843.65 2869.25,1843.41C2869.37,1840.01 2869.43,1836.67 2869.49,1833.27C2869.74,1816.17 2846.86,1813.86 2840.43,1826.3Z" style="fill:rgb(254,175,138);fill-rule:nonzero;"/>
            <path d="M2317.72,1362.62C2313.15,1345.71 2299.63,1333.88 2283.86,1327.45C2266.38,1320.32 2246.83,1321.81 2228.48,1323.5C2222.17,1324.08 2216.03,1328.67 2216.34,1335.64C2216.61,1341.71 2221.71,1348.4 2228.48,1347.77C2236.55,1347.03 2244.64,1346.29 2252.75,1346.36C2260.7,1346.43 2266.71,1347.03 2274.26,1349.65C2274.95,1349.89 2275.63,1350.14 2276.31,1350.41C2276.39,1350.45 2276.44,1350.48 2276.57,1350.54C2277.91,1351.2 2279.25,1351.87 2280.56,1352.62C2281.86,1353.37 2283.1,1354.2 2284.34,1355.03C2284.56,1355.17 2284.63,1355.21 2284.65,1355.2C2284.75,1355.29 2284.84,1355.37 2284.99,1355.5C2285.55,1355.98 2286.12,1356.46 2286.66,1356.96C2287.75,1357.96 2288.74,1359.03 2289.74,1360.11C2289.92,1360.31 2290.06,1360.47 2290.17,1360.59C2290.5,1361.06 2290.84,1361.52 2291.15,1362C2292.02,1363.34 2292.78,1364.73 2293.45,1366.17C2293.47,1366.25 2293.49,1366.3 2293.52,1366.43C2293.79,1367.32 2294.08,1368.18 2294.32,1369.08C2295.97,1375.2 2303.03,1379.56 2309.24,1377.55C2315.53,1375.52 2319.49,1369.19 2317.72,1362.62Z" style="fill:rgb(249,169,138);fill-rule:nonzero;"/>
            <path d="M2291.6,1394.44C2270.58,1364.94 2234.27,1358.18 2200.14,1360.4C2193.82,1360.82 2187.7,1365.69 2188,1372.54C2188.28,1378.76 2193.36,1385.12 2200.14,1384.67C2215.32,1383.69 2229.63,1383.87 2243.8,1388.41C2253.97,1391.66 2264.88,1398.6 2270.64,1406.69C2274.44,1412.02 2281.23,1414.56 2287.24,1411.04C2292.51,1407.96 2295.42,1399.81 2291.6,1394.44Z" style="fill:rgb(249,169,138);fill-rule:nonzero;"/>
            <path d="M2892.17,1904.88C2892.17,1904.88 2669.49,1926.44 2584.54,1908.02L2627.99,1748.68L2869.5,1758.07L2892.17,1904.88Z" style="fill:rgb(98,214,138);fill-rule:nonzero;"/>
            <path d="M3066.69,1867.94C3055.04,1880.49 3036.28,1883.34 3022.19,1876.16C3004,1866.89 3001.17,1844.13 3003.37,1825.16C3004.53,1815.19 3007.42,1804.06 3014.92,1796.92C3020.56,1791.55 3030.75,1788.97 3036.07,1793.36C3041.12,1797.53 3048.28,1798.31 3053.23,1793.36C3053.31,1793.28 3053.37,1793.17 3053.45,1793.08C3062.71,1799.29 3070.38,1807.79 3074.72,1818.2C3081.42,1834.3 3078.87,1854.82 3066.69,1867.94ZM3101.54,1824.69C3096.72,1793.09 3069.77,1768.63 3039.84,1760.5C3033.09,1758.67 3028.09,1762.35 3025.96,1767.34C3020.75,1767.66 3015.49,1768.93 3010.38,1771.21C2996.82,1777.27 2988.16,1789.9 2983.41,1803.59C2974.2,1830.14 2975.96,1866.95 2996.93,1887.64C3015.87,1906.32 3047.3,1909.11 3070.1,1896.06C3094.74,1881.94 3105.68,1851.89 3101.54,1824.69Z" style="fill-rule:nonzero;"/>
            <path d="M2987.87,2009.28C2987.38,2011.35 2986.76,2013.39 2986.01,2015.39C2985.31,2017.23 2982.96,2021.58 2980.76,2024.63C2980.55,2024.9 2980.19,2025.39 2980.13,2025.45C2979.45,2026.27 2978.73,2027.06 2978,2027.83C2976.78,2029.11 2975.49,2030.32 2974.13,2031.46C2973.75,2031.71 2972.12,2032.95 2972.19,2032.91C2971.49,2033.38 2970.77,2033.83 2970.04,2034.26C2969.31,2034.69 2968.56,2035.11 2967.81,2035.5C2967.21,2035.8 2966.61,2036.08 2966,2036.36C2965.97,2036.37 2965.81,2036.43 2965.44,2036.57C2961.16,2038.09 2958.58,2038.55 2955.55,2038.67C2953.43,2038.75 2951.31,2038.67 2949.19,2038.49C2949.09,2038.48 2948.74,2038.43 2948.43,2038.38C2947.24,2038.17 2946.05,2037.92 2944.88,2037.63C2930.41,2033.99 2919.26,2023.51 2916.7,2008.62C2916.66,2008.38 2916.63,2008.26 2916.61,2008.17C2916.6,2007.97 2916.6,2007.81 2916.59,2007.51C2916.54,2006.25 2916.44,2005.01 2916.44,2003.76C2916.44,2002.92 2916.47,2002.08 2916.51,2001.25C2916.55,2000.44 2916.61,1999.63 2916.7,1998.82C2917.05,1996.56 2917.58,1994.32 2918.25,1992.13C2918.5,1991.33 2918.76,1990.53 2919.04,1989.74C2919.43,1988.76 2919.56,1988.4 2919.45,1988.62C2919.63,1988.21 2919.81,1987.81 2920.01,1987.41C2922.13,1983.15 2924.26,1979.9 2926.54,1977.45C2927.98,1975.9 2929.53,1974.39 2931.2,1973.07C2931.41,1972.94 2932.03,1972.5 2932.13,1972.44C2933.54,1971.51 2934.98,1970.67 2936.46,1969.88C2938.41,1968.85 2939.86,1967.22 2940.86,1965.35C2942.53,1966.27 2944.38,1966.8 2946.35,1966.58C2961.68,1964.86 2976.03,1971.8 2983.83,1984.61C2988.09,1991.59 2988.89,1996.8 2988.61,2004.96C2988.6,2005.29 2988.59,2005.48 2988.59,2005.7C2988.56,2005.79 2988.54,2005.91 2988.5,2006.15C2988.33,2007.2 2988.12,2008.24 2987.87,2009.28ZM3009.25,1981.6C2999.44,1957.02 2973.2,1939.3 2946.35,1942.31C2941.89,1942.81 2937.89,1945.03 2935.79,1948.63C2932.24,1946.91 2927.91,1946.96 2924.21,1948.93C2904.15,1959.6 2891.61,1982.41 2892.19,2005.01C2892.82,2029.54 2908.79,2049.63 2931.14,2058.61C2952.98,2067.4 2978.23,2062.33 2994.72,2045.45C3010.77,2029.03 3017.94,2003.37 3009.25,1981.6Z" style="fill-rule:nonzero;"/>
            <path d="M3110.29,2117.21C3109.33,2121.28 3108.54,2123.55 3107.22,2126.21C3106.29,2128.09 3105.25,2129.93 3104.11,2131.7C3103.65,2132.41 3103.17,2133.1 3102.69,2133.79C3102.43,2134.17 3102.26,2134.43 3102.15,2134.6C3102,2134.75 3101.79,2134.97 3101.49,2135.3C3096.19,2141.01 3091.23,2144.86 3084.82,2146.75C3078.48,2148.62 3073.34,2148.5 3066.84,2146.67C3066.1,2146.46 3065.37,2146.24 3064.64,2145.99C3064.53,2145.96 3063.08,2145.38 3062.63,2145.23C3061.45,2144.68 3060.28,2144.11 3059.16,2143.46C3058.17,2142.89 3057.23,2142.24 3056.25,2141.65C3056.13,2141.57 3055.82,2141.35 3055.57,2141.17C3054.09,2139.97 3052.77,2138.61 3051.41,2137.26C3051.19,2137.05 3050.63,2136.4 3050.4,2136.15C3050.08,2135.71 3049.76,2135.27 3049.47,2134.83C3048.54,2133.4 3047.7,2131.87 3046.99,2130.31C3046.93,2129.95 3046.07,2127.41 3045.95,2126.92C3045.79,2126.29 3045.68,2125.64 3045.56,2125C3045.56,2124.69 3045.45,2123.55 3045.44,2123.06C3045.42,2122.37 3045.63,2118.98 3045.53,2119.05C3045.84,2117.08 3046.33,2115.12 3046.95,2113.23C3047.08,2112.8 3047.25,2112.38 3047.4,2111.95C3047.45,2111.9 3048.11,2110.32 3048.29,2109.98C3049.26,2108.09 3050.39,2106.25 3051.67,2104.54C3051.78,2104.43 3051.81,2104.4 3051.96,2104.24C3052.73,2103.46 3053.44,2102.63 3054.24,2101.88C3054.18,2101.93 3055.11,2101.11 3055.58,2100.67C3056.1,2100.31 3057.12,2099.57 3057.33,2099.44C3058.1,2098.96 3058.91,2098.56 3059.67,2098.09C3059.93,2097.93 3060.08,2097.83 3060.21,2097.74C3060.36,2097.7 3060.49,2097.67 3060.74,2097.59C3062.87,2096.94 3064.93,2096.4 3067.14,2096.1C3073.35,2095.25 3076.81,2087.63 3075.74,2081.97C3076.98,2081.71 3078.21,2081.31 3079.33,2080.62C3082,2078.99 3084.94,2078.13 3087.85,2078.13C3090.21,2078.13 3094.76,2079.06 3096.78,2080.19C3102.6,2083.46 3106.99,2088.83 3109.13,2095.24C3111.68,2102.84 3111.86,2110.58 3110.29,2117.21ZM3133.32,2091.37C3129.73,2078.26 3121.32,2065.62 3109.03,2059.24C3095.92,2052.43 3079.9,2051.83 3067.08,2059.67C3062.62,2062.4 3060.43,2067.7 3061.41,2072.64C3061.17,2072.67 3060.93,2072.66 3060.69,2072.7C3038.74,2075.71 3023.69,2096.66 3021.43,2117.56C3018.94,2140.46 3034.51,2159.94 3054.96,2168.18C3075.69,2176.54 3099.14,2171.41 3115.19,2156.09C3132.24,2139.83 3139.55,2114.11 3133.32,2091.37Z" style="fill-rule:nonzero;"/>
            <path d="M2972.8,2459.75C2955.07,2461.03 2939.07,2470.07 2929.24,2484.97C2918.67,2500.97 2918.54,2521.45 2926.23,2538.55C2928.84,2544.36 2937.73,2546.19 2942.83,2542.9C2948.83,2539.03 2949.97,2532.51 2947.18,2526.3C2948.26,2528.69 2947.29,2526.55 2947.09,2526C2946.81,2525.23 2946.55,2524.45 2946.31,2523.67C2945.84,2522.08 2945.53,2520.48 2945.19,2518.87C2945.17,2518.82 2945.17,2518.81 2945.16,2518.76L2945.16,2518.68C2945.14,2517.86 2945.03,2517.04 2945,2516.22C2944.94,2514.57 2944.97,2512.92 2945.09,2511.29C2945.1,2511.07 2945.24,2510.09 2945.29,2509.62C2945.39,2509.15 2945.48,2508.67 2945.48,2508.65C2945.82,2507.05 2946.26,2505.46 2946.77,2503.9C2946.82,2503.78 2946.98,2503.31 2947.14,2502.88C2947.34,2502.44 2947.8,2501.37 2947.81,2501.34C2948.52,2499.92 2949.32,2498.54 2950.19,2497.21C2950.24,2497.14 2950.52,2496.69 2950.77,2496.31C2951.03,2495.99 2951.29,2495.68 2951.55,2495.37C2952.54,2494.24 2953.58,2493.15 2954.67,2492.13C2955.11,2491.72 2955.56,2491.32 2956.01,2490.93C2956.36,2490.63 2956.7,2490.34 2957.05,2490.06C2957.74,2489.51 2957.52,2489.68 2956.38,2490.59C2956.31,2490.26 2959.4,2488.58 2959.77,2488.36C2961.07,2487.59 2962.43,2486.97 2963.75,2486.26L2963.76,2486.26C2964.47,2486 2965.17,2485.74 2965.88,2485.51C2967.31,2485.06 2968.76,2484.67 2970.23,2484.37C2970.47,2484.32 2970.75,2484.24 2971.03,2484.17C2971.62,2484.11 2972.21,2484.06 2972.8,2484.02C2979.12,2483.57 2985.24,2478.77 2984.94,2471.89C2984.66,2465.71 2979.58,2459.26 2972.8,2459.75Z" style="fill:white;fill-rule:nonzero;"/>
            <path d="M3118.63,2395.76C3108.42,2378.36 3092.41,2361.17 3071.52,2357.86C3050.47,2354.52 3029.14,2364.05 3021.2,2384.48C3018.89,2390.41 3023.73,2398.05 3029.67,2399.41C3036.64,2400.99 3042.13,2397.28 3044.6,2390.93C3043.65,2393.38 3044.46,2391.27 3044.77,2390.73C3045.17,2390.05 3045.58,2389.36 3045.99,2388.68C3046.07,2388.55 3046.09,2388.51 3046.14,2388.41C3046.24,2388.33 3046.3,2388.28 3046.43,2388.14C3046.88,2387.7 3047.3,2387.22 3047.75,2386.78C3048.08,2386.47 3049.74,2385.24 3048.98,2385.72C3049.39,2385.44 3049.79,2385.16 3050.22,2384.89C3050.9,2384.47 3051.61,2384.07 3052.32,2383.7C3052.49,2383.61 3053.31,2383.25 3053.76,2383.05C3054.21,2382.9 3054.71,2382.72 3054.84,2382.68C3055.63,2382.43 3056.42,2382.21 3057.22,2382.01C3058.02,2381.81 3058.83,2381.65 3059.64,2381.49C3059.71,2381.47 3059.73,2381.47 3059.78,2381.46C3059.82,2381.46 3059.82,2381.47 3059.87,2381.47C3061.67,2381.59 3063.52,2381.29 3065.34,2381.4C3065.64,2381.41 3065.95,2381.45 3066.25,2381.47C3065.47,2381.43 3067.57,2381.71 3067.98,2381.81C3069.62,2382.18 3071.2,2382.72 3072.78,2383.29C3073.09,2383.42 3073.54,2383.61 3073.86,2383.76C3074.71,2384.17 3075.54,2384.61 3076.36,2385.07C3078.01,2386 3079.58,2387.03 3081.13,2388.12C3081.29,2388.24 3081.36,2388.29 3081.49,2388.38C3081.55,2388.43 3081.64,2388.51 3081.82,2388.66C3082.54,2389.28 3083.26,2389.9 3083.97,2390.54C3085.38,2391.83 3086.74,2393.19 3088.04,2394.59C3088.82,2395.44 3089.59,2396.31 3090.33,2397.19C3090.44,2397.32 3091.21,2398.28 3091.55,2398.7C3091.88,2399.16 3092.72,2400.29 3092.69,2400.24C3093.25,2401.03 3093.79,2401.82 3094.33,2402.63C3095.5,2404.39 3096.6,2406.19 3097.67,2408.01C3100.88,2413.49 3108.76,2415.92 3114.28,2412.37C3119.79,2408.81 3122.07,2401.62 3118.63,2395.76Z" style="fill:white;fill-rule:nonzero;"/>
            <path d="M3240.02,2449.78C3233.23,2434.4 3216.81,2421.73 3199.42,2423.35C3193.12,2423.94 3186.97,2428.51 3187.29,2435.49C3187.56,2441.56 3192.65,2448.25 3199.42,2447.62C3200.88,2447.49 3202.29,2447.57 3203.74,2447.54C3203.81,2447.56 3203.83,2447.57 3203.91,2447.59C3204.52,2447.76 3205.15,2447.89 3205.76,2448.07C3205.93,2448.12 3206.64,2448.39 3207.11,2448.56C3207.39,2448.69 3207.67,2448.83 3207.75,2448.87C3208.81,2449.43 3209.77,2450.09 3210.76,2450.75C3211.04,2450.96 3211.5,2451.3 3211.7,2451.48C3212.2,2451.93 3212.68,2452.39 3213.15,2452.86C3213.74,2453.45 3214.28,2454.08 3214.85,2454.69C3214.92,2454.77 3214.94,2454.79 3214.99,2454.86C3215.88,2456.16 3216.77,2457.46 3217.53,2458.86C3217.85,2459.45 3218.14,2460.06 3218.44,2460.66C3218.49,2460.74 3218.5,2460.77 3218.54,2460.84C3218.55,2460.89 3218.55,2460.92 3218.57,2461C3218.97,2462.54 3219.55,2464.01 3219.89,2465.57C3220.04,2466.21 3220.15,2466.86 3220.27,2467.5C3220.28,2467.73 3220.42,2468.8 3220.46,2469.22C3220.59,2471.1 3220.63,2473 3220.57,2474.89C3220.54,2475.73 3220.49,2476.58 3220.43,2477.42C3220.42,2477.61 3220.27,2479.08 3220.23,2479.63C3220.15,2480.08 3220.01,2481 3219.99,2481.14C3219.81,2482.19 3219.6,2483.24 3219.38,2484.28C3218.98,2486.17 3218.51,2488.05 3218,2489.91C3216.92,2493.84 3215.61,2497.7 3214.21,2501.52C3212.04,2507.5 3216.65,2515.08 3222.69,2516.45C3229.54,2518.01 3235.29,2514.37 3237.62,2507.98C3244.42,2489.29 3248.33,2468.64 3240.02,2449.78Z" style="fill:white;fill-rule:nonzero;"/>
            <path d="M3097.14,2479.17C3072.65,2475.88 3049.59,2491.53 3040.84,2513.99C3038.53,2519.92 3043.38,2527.57 3049.32,2528.92C3056.28,2530.5 3061.77,2526.79 3064.24,2520.44C3063.34,2522.75 3064.69,2519.53 3064.81,2519.31C3065.22,2518.49 3065.68,2517.69 3066.16,2516.91C3066.49,2516.37 3066.85,2515.84 3067.21,2515.31C3067.23,2515.34 3068.39,2513.78 3068.52,2513.63C3069.87,2512.12 3071.34,2510.75 3072.87,2509.41C3072.99,2509.31 3073.06,2509.25 3073.1,2509.21C3073.2,2509.14 3073.31,2509.07 3073.48,2508.96C3074.41,2508.35 3075.31,2507.73 3076.27,2507.16C3077.06,2506.7 3077.87,2506.26 3078.69,2505.84C3079.04,2505.66 3079.49,2505.45 3079.78,2505.32C3081.51,2504.64 3083.28,2504.06 3085.09,2503.63C3085.98,2503.41 3086.89,2503.27 3087.78,2503.07C3085.23,2503.63 3088.49,2503.04 3088.93,2503.01C3089.84,2502.96 3090.76,2502.95 3091.68,2502.96C3091.89,2502.97 3093.03,2503.03 3093.73,2503.06C3094.25,2503.15 3095.38,2503.3 3095.57,2503.35C3096.65,2503.58 3097.71,2503.86 3098.77,2504.18C3099.64,2504.46 3100.51,2504.76 3101.36,2505.09C3101.4,2505.11 3101.4,2505.11 3101.43,2505.12C3101.55,2505.19 3101.72,2505.29 3101.98,2505.44C3103.75,2506.43 3105.48,2507.42 3107.17,2508.56C3107.34,2508.67 3107.41,2508.71 3107.46,2508.73C3107.55,2508.81 3107.63,2508.89 3107.78,2509.02C3108.61,2509.75 3109.44,2510.47 3110.23,2511.25C3110.88,2511.9 3111.51,2512.57 3112.13,2513.25C3112.37,2513.53 3112.7,2513.92 3112.91,2514.16C3114.14,2515.81 3115.25,2517.57 3116.2,2519.38C3116.28,2519.52 3116.68,2520.38 3116.94,2520.9C3117.13,2521.43 3117.5,2522.4 3117.56,2522.56C3117.9,2523.6 3118.2,2524.66 3118.45,2525.73C3118.59,2526.3 3119.11,2529.49 3118.77,2526.86C3119.57,2533.13 3123.78,2539.31 3130.91,2538.99C3136.8,2538.73 3143.9,2533.6 3143.04,2526.86C3139.95,2502.61 3121.83,2482.49 3097.14,2479.17Z" style="fill:white;fill-rule:nonzero;"/>
            <path d="M2281.64,1193.37C2281.64,1193.37 2266.49,1186.68 2254.87,1188.47C2243.25,1190.26 2243.45,1197.91 2238.42,1197.84C2233.4,1197.77 2230.12,1189.19 2215.42,1192.51C2200.73,1195.83 2196.67,1202.19 2196.67,1202.19C2196.67,1202.19 2205.07,1234.93 2244.08,1229.72C2275.62,1226.49 2281.64,1193.37 2281.64,1193.37Z" style="fill:rgb(244,111,121);fill-rule:nonzero;"/>
            <path d="M2194.24,1201.52C2210.69,1205.05 2225.76,1205.2 2240.92,1203.27C2248.44,1202.06 2255.99,1200.67 2263.58,1198.57C2267.42,1197.66 2271.15,1196.3 2275.11,1195.32C2279,1194.18 2282.84,1192.79 2287.1,1191.92C2284.27,1195.08 2281.12,1197.91 2277.83,1200.62C2274.33,1202.94 2270.91,1205.59 2267.04,1207.38C2259.48,1211.37 2251.13,1214.01 2242.54,1215.29C2233.92,1216.38 2225.04,1215.95 2216.64,1213.78C2208.29,1211.61 2200.15,1207.79 2194.24,1201.52Z" style="fill-rule:nonzero;"/>
            <path d="M2386.07,1089.29C2386.07,1107.02 2371.7,1121.39 2353.97,1121.39C2336.25,1121.39 2321.88,1107.02 2321.88,1089.29C2321.88,1071.56 2336.25,1057.19 2353.97,1057.19C2371.7,1057.19 2386.07,1071.56 2386.07,1089.29Z" style="fill:rgb(254,145,138);fill-rule:nonzero;"/>
            <path d="M2144.94,1132.35C2144.94,1150.08 2130.57,1164.45 2112.85,1164.45C2095.12,1164.45 2080.75,1150.08 2080.75,1132.35C2080.75,1114.62 2095.12,1100.25 2112.85,1100.25C2130.57,1100.25 2144.94,1114.62 2144.94,1132.35Z" style="fill:rgb(254,145,138);fill-rule:nonzero;"/>
            <path d="M3798.11,2588.42C3797.2,2595.7 3796.04,2602.92 3794.89,2610.14C3794.89,2610.32 3794.83,2610.5 3794.83,2610.69C3791.92,2628.89 3788.94,2647.15 3786.03,2665.42C3783.42,2681.62 3782.27,2699.15 3777.11,2714.8C3772.26,2729.49 3761.64,2743.02 3745.62,2745.69C3730.88,2748.11 3717.41,2739.56 3710.74,2726.63C3702.42,2710.62 3706.37,2692.84 3709.04,2675.91C3710.31,2667.9 3711.28,2659.83 3711.95,2651.7C3712.37,2646.91 3712.68,2642.06 3712.86,2637.2C3713.1,2632.41 3713.22,2627.68 3713.28,2622.88C3713.41,2605.17 3712.43,2587.39 3709.95,2569.85C3709.52,2567 3709.1,2563.97 3708.49,2560.87L3708.49,2560.81C3706.79,2551.59 3703.82,2542 3696.78,2536.18C3694.29,2534.12 3691.38,2532.72 3688.16,2531.69C3676.94,2528.23 3662.38,2530.17 3652,2530.05L3624.46,2529.63C3617.18,2529.57 3609.41,2528.84 3602.19,2530.23C3595.09,2531.57 3591.03,2535.57 3588.66,2540.85C3586.54,2545.46 3585.81,2550.98 3585.44,2556.51C3585.2,2560.51 3585.08,2564.45 3585.02,2568.46L3585.02,2568.52C3584.78,2581.26 3585.02,2594.06 3584.53,2606.8C3583.87,2624.95 3582.53,2643.03 3580.17,2661.05C3579.98,2662.62 3579.74,2664.26 3579.56,2665.9C3578.65,2672.7 3577.74,2679.67 3576.46,2686.53C3575.01,2694.54 3573.13,2702.43 3570.28,2709.83C3564.82,2724.15 3555.83,2736.4 3541.21,2742.23C3527.68,2747.57 3511.85,2745.38 3501.77,2734.4C3490.73,2722.45 3489.16,2706.13 3491.1,2690.66C3493.28,2673.42 3496.01,2656.56 3496.25,2639.14C3496.31,2634.47 3496.25,2629.8 3496.13,2625.25C3495.89,2619.42 3495.46,2613.66 3494.86,2607.96C3492.37,2584.17 3486.85,2561.12 3479.75,2537.76C3474.96,2521.8 3471.68,2504.39 3477.87,2488.31C3481.39,2479.27 3487.94,2471.02 3492.31,2462.16C3494.43,2457.85 3496.07,2453.42 3496.62,2448.69C3497.22,2443.23 3496.62,2437.89 3495.22,2432.67C3492.73,2423.08 3487.58,2413.92 3482.66,2405.67C3474.53,2392.02 3465.79,2378.67 3461,2363.38C3442.5,2304.16 3484,2244.64 3536.72,2220.92C3564.63,2208.36 3595.64,2202.29 3626.28,2202.29C3656.43,2202.29 3687.5,2209.39 3710.31,2230.14C3754.91,2270.79 3748.05,2333.1 3734.09,2386.86C3734.16,2387.47 3734.22,2388.08 3734.22,2388.74C3733.85,2402.88 3739.31,2415.5 3746.78,2427.15C3747.38,2428.06 3748.05,2429.03 3748.66,2429.94C3753.09,2436.55 3758,2442.74 3762.97,2448.93C3768.56,2455.85 3774.14,2462.64 3779.11,2469.98C3788.03,2483.03 3794.46,2497.71 3797.8,2513.12C3803.02,2538.06 3801.5,2563.36 3798.11,2588.42Z" style="fill:rgb(251,189,97);fill-rule:nonzero;"/>
            <path d="M3762.97,2448.93C3752.84,2450.21 3743.2,2452.03 3732.21,2454.09C3719.47,2456.46 3702.48,2462.4 3689.56,2460.34C3699.63,2448.32 3707.7,2444.02 3722.69,2437.65C3730.82,2434.13 3739.31,2431.82 3746.78,2427.15C3747.38,2428.06 3748.05,2429.03 3748.66,2429.94C3753.09,2436.55 3758,2442.74 3762.97,2448.93Z" style="fill:rgb(239,95,60);fill-rule:nonzero;"/>
            <path d="M3609.23,2444.26C3597.27,2458.88 3560.33,2462.22 3542.43,2463.8C3525.44,2465.25 3508.75,2463.86 3492.31,2462.16C3494.43,2457.85 3496.07,2453.42 3496.62,2448.69C3497.22,2443.23 3496.62,2437.89 3495.22,2432.67C3511.6,2435.04 3529.2,2442.08 3544.73,2442.92C3556.44,2443.53 3568.33,2441.89 3579.98,2442.92C3589.69,2443.77 3599.82,2446.81 3609.23,2444.26Z" style="fill:rgb(239,95,60);fill-rule:nonzero;"/>
            <path d="M3751.02,2510.94C3741.25,2523.01 3733.97,2535.88 3723.23,2546.92C3718.74,2551.65 3714.25,2557.29 3708.49,2560.81C3706.79,2551.59 3703.82,2542 3696.78,2536.18C3694.29,2534.12 3691.38,2532.72 3688.16,2531.69C3708.37,2521.19 3734.03,2514.34 3751.02,2510.94Z" style="fill:rgb(239,95,60);fill-rule:nonzero;"/>
            <path d="M3565.3,2523.38C3573.37,2526.84 3580.95,2534.06 3588.66,2540.85C3586.54,2545.46 3585.81,2550.98 3585.44,2556.51C3585.2,2560.51 3585.08,2564.45 3585.02,2568.46C3579.13,2563.91 3573.31,2556.45 3569.67,2552.99C3556.32,2540.25 3543.58,2518.46 3526.35,2510.94C3539.51,2514.82 3552.5,2517.86 3565.3,2523.38Z" style="fill:rgb(239,95,60);fill-rule:nonzero;"/>
            <path d="M3612.87,2555.66C3611.66,2555.47 3610.5,2555.17 3609.29,2554.69C3610.32,2554.56 3611.53,2554.87 3612.87,2555.66Z" style="fill:rgb(239,95,60);fill-rule:nonzero;"/>
            <path d="M3560.81,2607.29C3547.95,2608.81 3537.03,2620.4 3523.62,2622.58C3514.27,2624.16 3505.05,2623.55 3496.13,2625.25C3495.89,2619.42 3495.46,2613.66 3494.86,2607.96C3513.97,2601.77 3546.67,2607.29 3560.81,2607.29Z" style="fill:rgb(239,95,60);fill-rule:nonzero;"/>
            <path d="M3579.56,2665.9C3578.65,2672.7 3577.74,2679.67 3576.46,2686.53C3568.76,2684.47 3560.87,2681.13 3554.74,2678.4C3544.06,2673.67 3532.96,2661.29 3522.77,2658.98C3532.72,2661.35 3545.95,2660.99 3556.5,2662.5C3564.69,2663.72 3572.16,2664.32 3579.56,2665.9Z" style="fill:rgb(239,95,60);fill-rule:nonzero;"/>
            <path d="M3798.11,2588.42C3797.2,2595.7 3796.04,2602.92 3794.89,2610.14C3794.65,2610.02 3794.4,2609.9 3794.16,2609.78C3775.47,2601.4 3757.88,2590.24 3745.99,2573.37C3754.54,2579.38 3764.49,2577.92 3774.32,2580.84C3782.21,2583.2 3790.04,2586.3 3798.11,2588.42Z" style="fill:rgb(239,95,60);fill-rule:nonzero;"/>
            <path d="M3769.22,2635.5C3757.94,2640.84 3748.41,2644.48 3735.25,2646.97C3728.27,2648.24 3719.41,2649.28 3711.95,2651.7C3712.37,2646.91 3712.68,2642.06 3712.86,2637.2C3730.88,2633.2 3753.75,2628.22 3769.22,2635.5Z" style="fill:rgb(239,95,60);fill-rule:nonzero;"/>
            <path d="M3629.89,2307.78C3627.79,2304.2 3623.64,2301.6 3619.41,2301.77L3594.08,2302.77C3590.89,2302.89 3587.78,2304.04 3585.49,2306.32C3583.39,2308.43 3581.8,2311.88 3581.94,2314.9C3582.06,2317.55 3582.87,2320.25 3584.54,2322.35C3584.99,2324.75 3586.03,2326.99 3587.83,2328.77C3592.1,2333.02 3596.38,2337.27 3600.65,2341.52C3603.72,2344.57 3608.27,2345.79 3612.46,2344.64C3614.51,2344.06 3616.3,2343.02 3617.81,2341.52C3619.25,2340.07 3620.23,2338.36 3620.82,2336.42C3623.31,2330.67 3626.32,2325.18 3629.89,2320.03C3632.31,2316.54 3631.95,2311.3 3629.89,2307.78Z" style="fill-rule:nonzero;"/>
            <path d="M3675.45,2258.24C3674.87,2256.19 3673.83,2254.4 3672.32,2252.89L3671.54,2252.11C3670.44,2250.92 3669.14,2250.09 3667.64,2249.6C3666.19,2248.84 3664.63,2248.49 3662.96,2248.55C3661.29,2248.49 3659.73,2248.84 3658.29,2249.6C3656.78,2250.09 3655.48,2250.92 3654.38,2252.11C3653.75,2252.92 3653.12,2253.74 3652.48,2254.56C3651.39,2256.45 3650.83,2258.5 3650.83,2260.69C3650.97,2261.76 3651.12,2262.84 3651.26,2263.91C3651.84,2265.97 3652.88,2267.75 3654.38,2269.27L3655.16,2270.05C3656.26,2271.23 3657.56,2272.07 3659.07,2272.56C3660.52,2273.32 3662.07,2273.67 3663.74,2273.6C3665.41,2273.67 3666.97,2273.32 3668.42,2272.56C3669.92,2272.07 3671.23,2271.23 3672.32,2270.05C3672.96,2269.23 3673.59,2268.41 3674.22,2267.59C3675.32,2265.7 3675.87,2263.66 3675.88,2261.47C3675.73,2260.39 3675.59,2259.32 3675.45,2258.24Z" style="fill-rule:nonzero;"/>
            <path d="M3555.63,2265.36L3554.4,2262.46C3553.33,2260.64 3551.87,2259.19 3550.05,2258.11L3548.49,2257.32C3547.1,2256.43 3545.59,2255.95 3543.98,2255.88C3542.36,2255.52 3540.75,2255.59 3539.14,2256.1C3537.56,2256.47 3536.18,2257.19 3535.01,2258.27C3533.69,2259.12 3532.65,2260.26 3531.89,2261.67C3531.48,2262.64 3531.07,2263.6 3530.66,2264.57C3530.08,2266.72 3530.08,2268.87 3530.66,2271.02L3531.89,2273.92C3532.96,2275.74 3534.42,2277.2 3536.24,2278.27C3536.76,2278.54 3537.28,2278.8 3537.8,2279.07C3539.19,2279.95 3540.7,2280.43 3542.31,2280.51C3543.92,2280.87 3545.54,2280.8 3547.15,2280.29C3548.73,2279.91 3550.11,2279.19 3551.28,2278.12C3552.6,2277.26 3553.64,2276.13 3554.4,2274.71L3555.63,2271.81C3556.2,2269.66 3556.2,2267.51 3555.63,2265.36Z" style="fill-rule:nonzero;"/>
            <path d="M3610.7,2322.44C3612.05,2328.4 3612.33,2334.56 3613.6,2340.09C3614.72,2345.68 3616.9,2350.35 3620.48,2353.51C3623.98,2356.43 3629.27,2359.44 3633.94,2360.89C3638.69,2362.41 3643.14,2362.54 3647.68,2361.07C3652.2,2359.61 3657.1,2356.89 3659.96,2353.72C3663.02,2350.56 3664.16,2346.38 3663.87,2341.3C3663.8,2337.11 3660.86,2331.96 3657.31,2328.11C3655.53,2326.13 3653.41,2324.5 3651.04,2323.78C3648.7,2322.96 3645.83,2323.8 3643.58,2325.96L3644.73,2323.94C3645.21,2323.31 3645.81,2322.75 3646.4,2322.13C3647.79,2321.19 3649.51,2320.47 3651.3,2320.42C3654.91,2320.25 3658.19,2321.75 3661.04,2323.46C3666.43,2327.21 3671.5,2332.09 3673.23,2339.82C3675.09,2346.46 3673.6,2355.03 3668.82,2361.03C3663.97,2367.04 3658,2370.34 3651.28,2372.66C3644.44,2374.91 3636.32,2374.41 3629.94,2371.63C3626.72,2370.28 3623.83,2368.57 3621.16,2366.74C3618.58,2365.05 3615.69,2362.61 3613.5,2359.85C3608.76,2354.25 3607.4,2346.78 3607.69,2340.56C3608.04,2334.18 3609.38,2328.4 3610.7,2322.44Z" style="fill-rule:nonzero;"/>
            <path d="M3608.51,2326.95C3609.83,2332.91 3611.17,2338.7 3611.52,2345.07C3611.81,2351.29 3610.46,2358.76 3605.71,2364.37C3603.52,2367.12 3600.63,2369.56 3598.06,2371.25C3595.38,2373.09 3592.49,2374.79 3589.27,2376.14C3582.89,2378.92 3574.77,2379.42 3567.93,2377.17C3561.21,2374.85 3555.25,2371.55 3550.39,2365.55C3545.61,2359.54 3544.13,2350.97 3545.99,2344.33C3547.71,2336.61 3552.78,2331.72 3558.18,2327.97C3561.02,2326.27 3564.3,2324.77 3567.91,2324.94C3569.7,2324.98 3571.42,2325.7 3572.81,2326.64C3573.4,2327.26 3574,2327.83 3574.48,2328.45L3575.63,2330.47C3573.38,2328.31 3570.51,2327.48 3568.17,2328.29C3565.8,2329.01 3563.68,2330.65 3561.9,2332.62C3558.35,2336.48 3555.41,2341.62 3555.34,2345.81C3555.05,2350.9 3556.19,2355.08 3559.25,2358.24C3562.11,2361.4 3567.01,2364.13 3571.53,2365.59C3576.07,2367.05 3580.52,2366.92 3585.27,2365.41C3589.94,2363.95 3595.24,2360.94 3598.73,2358.02C3602.31,2354.86 3604.5,2350.19 3605.61,2344.61C3606.88,2339.07 3607.16,2332.91 3608.51,2326.95Z" style="fill-rule:nonzero;"/>
            <path d="M2044.04,1636.45C2021.83,1701.55 2011.55,1770.53 2013.73,1839.27C2014.22,1854.85 2038.49,1854.92 2038,1839.27C2035.88,1772.48 2045.86,1706.15 2067.44,1642.9C2072.49,1628.09 2049.06,1621.73 2044.04,1636.45Z" style="fill-rule:nonzero;"/>
            <path d="M2635.95,1721.86C2635.85,1770.48 2630.71,1818.8 2620.4,1866.31C2617.1,1881.53 2640.49,1888.04 2643.81,1872.76C2654.56,1823.19 2660.12,1772.58 2660.22,1721.86C2660.25,1706.25 2635.98,1706.22 2635.95,1721.86Z" style="fill-rule:nonzero;"/>
        </g>
    </g>
</svg>
