<?xml version="1.0" encoding="UTF-8" standalone="no"?>
<!DOCTYPE svg PUBLIC "-//W3C//DTD SVG 1.1//EN" "http://www.w3.org/Graphics/SVG/1.1/DTD/svg11.dtd">
<svg width="100%" height="100%" viewBox="0 0 979 595" version="1.1" xmlns="http://www.w3.org/2000/svg" xmlns:xlink="http://www.w3.org/1999/xlink" xml:space="preserve" xmlns:serif="http://www.serif.com/" style="fill-rule:evenodd;clip-rule:evenodd;stroke-linejoin:round;stroke-miterlimit:2;">
    <g>
        <rect x="0.329" y="0.352" width="978.128" height="594.021" style="fill:white;"/>
        <path d="M710.084,518.343L822.224,518.343C825.852,518.343 825.847,523.827 822.224,523.827L710.084,523.827C706.461,523.827 706.456,518.343 710.084,518.343Z" style="fill:rgb(222,229,234);"/>
        <path d="M857.415,518.343L912.015,518.343C915.643,518.343 915.64,523.827 912.015,523.827L857.415,523.827C853.788,523.827 853.787,518.343 857.415,518.343Z" style="fill:rgb(222,229,234);"/>
        <path d="M897.049,520.764L884.874,520.764L853.396,423.946L885.737,423.946L897.049,520.764Z" style="fill:rgb(176,151,137);"/>
        <path d="M865.716,461.84L853.396,423.946L885.737,423.946L890.165,461.84L865.716,461.84Z" style="fill:rgb(127,98,88);"/>
        <path d="M744.803,520.764L756.978,520.764L788.456,423.946L756.115,423.946L744.803,520.764Z" style="fill:rgb(176,151,137);"/>
        <path d="M776.136,461.84L788.456,423.946L756.115,423.946L751.687,461.84L776.136,461.84Z" style="fill:rgb(127,98,88);"/>
        <path d="M793.673,324.593L763.527,324.593L755.88,274.594C755.672,273.193 756.639,272.047 758.039,272.047L799.161,272.047C800.562,272.047 801.528,273.193 801.32,274.594L793.673,324.593Z" style="fill:rgb(167,198,70);"/>
        <path d="M744.95,278.961C738.998,281.277 740.342,291.565 747.951,301.941C755.561,312.317 766.553,318.852 772.505,316.536C778.457,314.222 777.113,303.934 769.504,293.557C761.895,283.182 750.902,276.646 744.95,278.961ZM763.855,308.942C757.122,304.939 749.669,296.24 747.583,288.546C745.875,282.255 749.534,284.139 753.601,286.556C760.336,290.56 767.785,299.257 769.872,306.953C771.577,313.241 767.924,311.362 763.855,308.942Z" style="fill:rgb(167,198,70);"/>
        <path d="M407.523,518.343L667.146,518.343C670.773,518.343 670.769,523.827 667.146,523.827L407.523,523.827C403.9,523.827 403.899,518.343 407.523,518.343Z" style="fill:rgb(222,229,234);"/>
        <path d="M99.397,518.343L378.584,518.343C382.212,518.343 382.208,523.827 378.584,523.827L99.397,523.827C95.773,523.827 95.769,518.343 99.397,518.343Z" style="fill:rgb(222,229,234);"/>
        <path d="M66.773,518.342L74.69,518.342C78.319,518.342 78.317,523.827 74.69,523.827L66.773,523.827C63.146,523.827 63.144,518.342 66.773,518.342Z" style="fill:rgb(222,229,234);"/>
        <rect x="513.434" y="259.483" width="40.42" height="43.695" style="fill:rgb(247,184,156);"/>
        <path d="M569.879,316.58L495.515,316.58L495.515,283.004C505.965,277.05 521.425,271.012 532.697,265.695C543.968,271.012 559.429,277.05 569.879,283.004L569.879,316.58Z" style="fill:rgb(247,184,156);"/>
        <path d="M466.097,412.17C467.064,409.049 468.557,399.495 469.899,391.094C471.933,378.369 471.84,367.043 473.224,354.84C513.926,291.001 450.357,272.343 445.76,330.613C443.431,338.807 439.563,369.758 439.284,378.392C439.03,386.222 437.173,400.24 436.676,406.491C434.678,431.643 459.944,432.019 466.097,412.17Z" style="fill:rgb(247,184,156);"/>
        <path d="M467.438,515.217L467.693,506.158L473.739,358.266L467.464,294.398L499.808,279.261C502.604,295.336 516.624,307.559 533.5,307.559C550.133,307.559 563.99,295.685 567.063,279.952L597.929,294.398L591.655,358.266L597.702,506.158L597.955,515.217L467.438,515.217Z" style="fill:rgb(71,151,255);"/>
        <path d="M473.106,390.152L435.225,382.449C435.225,382.449 439.868,347.944 440.817,342.351C441.767,336.758 443.035,323.567 445.777,315.443C448.539,307.259 456.009,298.579 464.662,295.343C496.327,283.5 489.448,323.442 485.055,339.247C483.178,345.996 481.55,351.53 481.55,351.53L473.106,390.152Z" style="fill:rgb(71,151,255);"/>
        <path d="M599.297,412.17C598.33,409.049 596.837,399.495 595.495,391.094C593.461,378.369 593.553,367.043 592.17,354.84C551.468,291.001 615.037,272.343 619.634,330.613C621.963,338.807 625.83,369.758 626.11,378.392C626.364,386.222 628.221,400.24 628.718,406.491C630.716,431.643 605.45,432.019 599.297,412.17Z" style="fill:rgb(247,184,156);"/>
        <path d="M592.288,390.152L630.169,382.449C630.169,382.449 625.526,347.944 624.576,342.351C623.627,336.758 622.359,323.567 619.617,315.443C616.855,307.259 609.385,298.579 600.731,295.343C569.067,283.5 575.946,323.442 580.339,339.247C582.216,345.996 583.844,351.53 583.844,351.53L592.288,390.152Z" style="fill:rgb(71,151,255);"/>
        <path d="M560.286,230.747L563.564,228.227C567.033,225.56 567.449,230.311 566.819,233.277L564.213,245.54C563.85,247.248 563.093,249.364 561.452,249.364L557.85,249.364L560.286,230.747Z" style="fill:rgb(239,177,149);"/>
        <path d="M558.493,244.453L559.836,234.183L561.3,233.633C565.212,232.163 564.873,237.093 563.38,239.546L560.396,244.453L558.493,244.453Z" style="fill:rgb(239,177,149);"/>
        <path d="M513.434,259.483L553.853,259.483L553.853,276.94C552.606,278.173 550.97,279.47 548.763,281.139L542.732,285.696C540.83,287.133 540,287.586 537.428,287.586L529.859,287.586C527.288,287.586 526.457,287.133 524.555,285.696L518.524,281.139C516.316,279.47 514.682,278.173 513.434,276.94L513.434,259.483Z" style="fill:rgb(239,177,149);"/>
        <path d="M507.001,230.747L503.723,228.227C500.254,225.56 499.838,230.311 500.468,233.277L503.074,245.54C503.437,247.248 504.194,249.364 505.835,249.364L509.437,249.364L507.001,230.747Z" style="fill:rgb(239,177,149);"/>
        <path d="M508.794,244.453L507.451,234.183L505.987,233.633C502.075,232.163 502.414,237.093 503.907,239.546L506.891,244.453L508.794,244.453Z" style="fill:rgb(239,177,149);"/>
        <path d="M529.86,279.991C527.288,279.991 526.457,279.539 524.555,278.102L518.524,273.545C511.383,268.148 510.213,266.62 508.887,258.659L505.693,239.485C495.988,181.234 571.299,181.234 561.594,239.485L558.4,258.659C557.074,266.62 555.905,268.148 548.763,273.545L542.732,278.102C540.831,279.539 539.999,279.991 537.428,279.991L529.86,279.991Z" style="fill:rgb(247,184,156);"/>
        <path d="M560.3,200.325C557.819,181.261 523.776,183.42 510.42,195.226C496.653,207.395 503.246,221.511 504.986,237.026L507.532,237.276L507.532,225.379L511.992,220.496L511.992,213.037C522.95,207.005 542.569,210.071 555.294,207.087L555.294,220.496L559.743,225.379L559.743,237.276L562.29,237.026C563.343,227.604 571.373,203.743 560.3,200.325Z" style="fill:rgb(46,58,71);"/>
        <path d="M480.82,522.242L584.767,522.242C601.373,522.242 607.697,518.488 617.347,509.565L657.083,456.728L657.083,431.147L408.504,431.147L408.504,456.728L448.24,509.565C457.89,518.488 464.214,522.242 480.82,522.242Z" style="fill:rgb(36,45,54);"/>
        <path d="M535.714,516.722L509.061,528.106L462.189,528.106C462.189,528.106 449.737,529.194 452.368,519.27C455.002,509.347 463.126,498.2 463.126,498.2C463.126,498.2 469.632,490.589 479.513,492.492C489.395,494.395 508.536,502.028 508.536,502.028L532.089,497.954L535.714,516.722Z" style="fill:rgb(239,177,149);"/>
        <path d="M535.714,516.722L509.061,528.107L503.92,528.107L465.223,496.262C467.895,494.15 472.962,491.23 479.513,492.492C489.394,494.395 508.536,502.028 508.536,502.028L522.846,499.553L534.31,509.453L535.714,516.722Z" style="fill:rgb(223,164,136);"/>
        <path d="M555.982,513.204L614.605,493.346L647.433,474.497C668.875,462.186 671.256,464.148 682.612,440.619C687.195,431.12 687.101,425.942 681.578,418.295C678.937,414.64 675.521,410.319 672.972,406.938C667.256,399.355 660.089,400.836 650.844,403.392C645.825,404.778 638.217,407.396 631.743,411.781C621.004,419.055 617.612,426.931 617.612,426.931C587.071,446.577 555.913,476.402 524.352,493.411L555.982,513.204Z" style="fill:rgb(65,79,94);"/>
        <path d="M606.67,434.348C588.814,447.002 570.756,462.173 552.542,475.334L607.149,456.584L608.04,455.751L606.67,434.348Z" style="fill:rgb(46,58,71);"/>
        <path d="M522.106,519.527L542.187,530.911L589.059,530.911C589.059,530.911 600.883,531.998 603.981,522.075C607.077,512.151 605.388,501.004 605.388,501.004C605.388,501.004 603.277,493.393 592.297,495.296C581.317,497.199 557.768,504.833 557.768,504.833L536.568,500.759L522.106,519.527Z" style="fill:rgb(247,184,156);"/>
        <path d="M522.106,519.526L537.398,528.196L546.287,502.626L536.567,500.758L522.106,519.526Z" style="fill:rgb(231,170,142);"/>
        <path d="M530.278,527.796L411.146,462.033C392.582,451.786 392.014,452.876 381.917,431.95C377.334,422.453 377.429,417.274 382.951,409.626C385.592,405.972 389.009,401.651 391.557,398.27C397.273,390.687 404.44,392.168 413.685,394.724C418.705,396.11 426.312,398.728 432.786,403.113C443.526,410.386 446.917,418.263 446.917,418.263C446.917,418.263 472.069,439.007 483.09,452.801C494.112,466.595 498.916,470.614 498.916,470.614L550.382,500.641L530.278,527.796Z" style="fill:rgb(65,79,94);"/>
        <path d="M455.971,426.004C464.296,433.304 476.341,444.355 483.09,452.801C494.112,466.595 498.916,470.614 498.916,470.614L455.971,455.869L455.971,426.004Z" style="fill:rgb(46,58,71);"/>
        <path d="M454.475,453.262L610.919,453.262C614.692,453.262 617.778,450.177 617.778,446.404L617.778,362.651C617.778,358.879 614.691,355.793 610.919,355.793L454.475,355.793C450.703,355.793 447.616,358.88 447.616,362.651L447.616,446.404C447.616,450.176 450.702,453.262 454.475,453.262Z" style="fill:white;"/>
        <path d="M457.789,456.577L607.604,456.577C611.377,456.577 614.463,453.491 614.463,449.718L614.463,365.966C614.463,362.194 611.377,359.107 607.604,359.107L457.789,359.107C454.017,359.107 450.93,362.194 450.93,365.966L450.93,449.718C450.93,453.491 454.017,456.577 457.789,456.577Z" style="fill:rgb(189,203,212);"/>
        <path d="M532.696,409.427C540.265,409.427 546.438,404.028 546.438,397.409C546.438,390.789 540.265,385.391 532.696,385.391C525.128,385.391 518.955,390.789 518.955,397.409C518.955,404.028 525.128,409.427 532.696,409.427Z" style="fill:white;"/>
        <rect x="737.081" y="329.15" width="167.689" height="123.934" style="fill:rgb(251,214,45);"/>
        <rect x="737.081" y="334.664" width="167.689" height="7.137" style="fill:rgb(251,180,45);"/>
        <path d="M732.397,334.664L909.454,334.664C916.748,334.664 916.747,323.638 909.454,323.638L732.397,323.638C725.105,323.638 725.104,334.664 732.397,334.664Z" style="fill:rgb(251,214,45);"/>
        <rect x="737.081" y="392.738" width="167.689" height="7.136" style="fill:rgb(251,180,45);"/>
        <path d="M820.926,354.115C828.515,354.115 834.668,359.495 834.668,366.132C834.668,372.77 828.515,378.15 820.926,378.15C813.337,378.15 807.185,372.77 807.185,366.132C807.185,359.495 813.337,354.115 820.926,354.115Z" style="fill:white;"/>
        <path d="M820.926,414.461C828.515,414.461 834.668,419.841 834.668,426.479C834.668,433.116 828.515,438.497 820.926,438.497C813.337,438.497 807.185,433.116 807.185,426.479C807.185,419.841 813.337,414.461 820.926,414.461Z" style="fill:white;"/>
        <path d="M283.819,510.289C282.546,510.435 281.943,509.94 281.722,508.594C278.979,492.073 288.929,478.672 302.045,469.927C309.631,464.871 314.303,458.285 314.303,448.823C314.303,435.482 303.489,424.667 290.147,424.667C276.804,424.667 265.99,435.482 265.99,448.823C265.99,451.765 266.715,454.623 267.185,457.511C269.239,470.157 270.094,476.403 267.028,488.663C266.31,491.536 266.479,492.514 266.764,495.364C267.262,500.326 268.285,509.435 269.468,514.554C270.273,518.079 271.825,521.085 276.12,521.085L294.437,521.085C297.287,521.085 298.055,519.227 296.779,516.938C294.179,512.28 289.097,509.704 283.819,510.289Z" style="fill:rgb(127,98,88);"/>
        <path d="M181.791,508.004C178.835,499.445 176.566,487.29 184.829,481.157C196.039,472.841 201.523,463.556 200.102,449.09C195.877,406.029 149.222,425.939 160.414,456.826C163.375,464.993 170.195,475.729 164.67,483.934C161.229,489.063 163.617,492.298 165.113,497.352C166.907,503.433 168.329,508.395 169.747,514.555C170.556,518.077 172.104,521.085 176.395,521.085L194.717,521.085C197.564,521.085 198.332,519.227 197.058,516.938C194.581,512.504 189.857,510.019 184.856,510.227C182.868,510.309 182.629,510.404 181.791,508.004Z" style="fill:rgb(127,98,88);"/>
        <path d="M243.971,477.702C293.173,491.496 326.798,468.192 325.233,419.352C324.86,407.775 325.647,395.616 327.477,383.866C329.009,375.05 341.118,371.479 349.679,370.928C356.197,370.51 359.441,367.818 362.116,362.404C363.205,362.295 364.031,361.944 365.158,360.794C367.604,358.289 369.716,355.713 371.107,352.571C372.804,348.684 372.279,347.682 368.137,346.487C358.977,343.847 351.148,343.874 342.326,342.48C336.49,341.558 333.818,339.12 332.95,337.853C330.666,334.517 330.204,334.511 325.136,333.729C307.627,331.035 289.249,333.685 285.986,354.518C283.954,367.477 282.306,380.561 280.05,393.461C278.938,399.804 276.688,400.126 270.591,401.098C262.157,402.436 254.725,404.256 246.574,406.603C241.212,408.141 238.811,408.502 230.607,408.502C203.275,408.502 149.068,408.035 129.319,428.228C111.416,446.565 124.128,488.601 155.447,473.237C175.921,463.209 220.896,471.231 243.971,477.702Z" style="fill:rgb(176,151,137);"/>
        <path d="M237.389,510.29C234.52,510.614 235.472,507.928 236.083,506.408C241.461,493.061 254.623,485.978 268.647,483.432C277.615,481.803 284.521,477.617 288.279,468.928C293.572,456.684 287.941,442.463 275.695,437.166C263.448,431.869 249.228,437.505 243.934,449.749C242.768,452.45 242.297,455.362 241.581,458.198C238.448,470.62 236.753,476.695 229.071,486.727C227.271,489.08 227.036,490.044 226.167,492.773C223.523,501.102 221.025,505.849 223.038,514.555C223.843,518.078 225.397,521.085 229.688,521.085L248.01,521.085C250.857,521.085 251.625,519.227 250.351,516.938C247.75,512.28 242.667,509.704 237.389,510.29Z" style="fill:rgb(176,151,137);"/>
        <path d="M122.784,510.289C121.509,510.435 120.906,509.94 120.685,508.594C119.27,500.083 119.913,492.05 129.786,490.742C143.623,488.906 152.927,483.453 158.702,470.114C175.9,430.411 125.445,425.182 120.243,457.62C118.871,466.194 119.624,478.894 110.813,483.389C104.638,486.552 105.271,491.065 105.932,497.353C106.473,502.49 107.399,510.059 108.431,514.554C109.241,518.077 110.79,521.085 115.083,521.085L133.402,521.085C136.25,521.085 137.018,519.227 135.744,516.938C133.142,512.28 128.062,509.704 122.784,510.289Z" style="fill:rgb(176,151,137);"/>
        <path d="M62.235,425.319C73.882,430.994 89.131,434.729 105.795,434.729C120.755,434.729 134.559,431.956 145.658,427.284C152.534,424.374 148.998,416.859 142.849,419.433C131.099,424.354 116.311,427.291 100.239,427.291C86.804,427.291 74.264,425.229 63.648,421.689C59.266,420.228 59.335,423.902 62.235,425.319Z" style="fill:rgb(176,151,137);"/>
        <path d="M330.179,341.912L330.179,344.144C330.179,346.463 326.674,346.463 326.674,344.144L326.674,341.912C326.674,339.593 330.179,339.593 330.179,341.912Z" style="fill:rgb(127,98,88);"/>
        <path d="M328.083,409.078L330.688,399.355C330.957,398.352 330.355,397.311 329.353,397.042L281.449,384.207C280.447,383.938 279.405,384.542 279.137,385.542L276.532,395.263C276.264,396.263 276.866,397.308 277.867,397.576L325.77,410.413C326.771,410.682 327.814,410.081 328.083,409.078Z" style="fill:rgb(251,214,45);"/>
        <path d="M283.458,387.599C299.786,401.639 328.026,396.013 314.157,374.627C312.257,371.698 309.819,368.472 307.639,365.322C304.812,361.238 301.593,355.159 299.71,351.448C295.739,343.616 287.153,346.049 285.093,352.169C283.906,355.709 281.08,364.089 279.476,368.701C276.645,376.828 277.786,382.727 283.458,387.599Z" style="fill:rgb(127,98,88);"/>
        <rect x="293.95" y="98.924" width="46.33" height="72.676" style="fill:rgb(204,43,54);"/>
        <rect x="278.75" y="98.924" width="49.972" height="72.676" style="fill:rgb(255,59,69);"/>
        <rect x="270.214" y="77.061" width="42.06" height="94.539" style="fill:rgb(251,180,45);"/>
        <rect x="252.932" y="77.061" width="49.972" height="94.539" style="fill:rgb(251,214,45);"/>
        <rect x="239.815" y="88.931" width="49.972" height="82.669" style="fill:rgb(44,120,219);"/>
        <rect x="222.533" y="88.931" width="49.971" height="82.669" style="fill:rgb(71,151,255);"/>
        <rect x="113.18" y="179.727" width="22.305" height="38.555" style="fill:rgb(189,203,212);"/>
        <rect x="321.569" y="179.727" width="22.305" height="38.555" style="fill:rgb(189,203,212);"/>
        <path d="M82.59,170.167L374.465,170.167C388.798,170.167 388.796,191.834 374.465,191.834L82.59,191.834C68.259,191.834 68.257,170.167 82.59,170.167Z" style="fill:rgb(222,229,234);"/>
        <path d="M169.463,110.585C169.463,141.206 165.08,166.031 159.675,166.031C154.27,166.031 149.887,141.206 149.887,110.585C149.887,79.961 154.27,55.137 159.675,55.137C165.08,55.137 169.463,79.961 169.463,110.585Z" style="fill:rgb(167,198,70);"/>
        <path d="M155.935,118.366C162.485,142.779 163.564,163.707 158.342,165.11C153.122,166.51 143.578,147.852 137.028,123.439C130.477,99.026 129.401,78.098 134.621,76.695C139.841,75.295 149.385,93.953 155.935,118.366Z" style="fill:rgb(167,198,70);"/>
        <path d="M144.983,128.898C156.064,146.876 161.93,163.375 158.087,165.745C154.241,168.113 142.139,155.46 131.059,137.479C119.978,119.501 114.11,103.003 117.955,100.632C121.801,98.264 133.903,110.917 144.983,128.898Z" style="fill:rgb(167,198,70);"/>
        <path d="M163.415,118.366C156.864,142.779 155.786,163.707 161.008,165.11C166.228,166.51 175.772,147.852 182.322,123.439C188.873,99.026 189.949,78.098 184.729,76.695C179.509,75.295 169.965,93.953 163.415,118.366Z" style="fill:rgb(167,198,70);"/>
        <path d="M174.366,128.898C163.286,146.876 157.42,163.375 161.263,165.745C165.108,168.113 177.211,155.46 188.291,137.479C199.371,119.501 205.24,103.003 201.394,100.632C197.549,98.264 185.447,110.917 174.366,128.898Z" style="fill:rgb(167,198,70);"/>
        <path d="M123.858,131.666L195.495,131.666L191.617,170.167L127.735,170.167L123.858,131.666Z" style="fill:rgb(251,214,45);"/>
        <path d="M123.857,131.667L195.494,131.667L193.735,149.133L125.617,149.133L123.857,131.667Z" style="fill:rgb(251,180,45);"/>
        <path d="M124.782,131.667L194.569,131.667C197.614,131.667 200.104,134.157 200.104,137.201C200.104,140.246 197.614,142.736 194.569,142.736L124.782,142.736C121.738,142.736 119.247,140.246 119.247,137.201C119.247,134.157 121.738,131.667 124.782,131.667Z" style="fill:rgb(251,214,45);"/>
        <path d="M677.613,77.061L878.995,77.061C883.202,77.061 886.642,80.503 886.642,84.708L886.642,211.527C886.642,215.733 883.2,219.174 878.995,219.174L677.613,219.174C673.407,219.174 669.966,215.734 669.966,211.527L669.966,84.708C669.966,80.502 673.407,77.061 677.613,77.061Z" style="fill:rgb(222,229,234);"/>
        <rect x="691.635" y="98.728" width="173.34" height="98.777" style="fill:white;"/>
        <path d="M728.369,120.625C735.958,120.625 742.111,126.006 742.111,132.643C742.111,139.281 735.958,144.661 728.369,144.661C720.78,144.661 714.627,139.281 714.627,132.643C714.627,126.006 720.78,120.625 728.369,120.625Z" style="fill:rgb(251,214,45);"/>
        <path d="M728.369,151.573C735.958,151.573 742.111,156.954 742.111,163.591C742.111,170.229 735.958,175.609 728.369,175.609C720.78,175.609 714.627,170.229 714.627,163.591C714.627,156.954 720.78,151.573 728.369,151.573Z" style="fill:rgb(167,198,70);"/>
        <path d="M761.659,120.625C769.248,120.625 775.4,126.006 775.4,132.643C775.4,139.281 769.248,144.661 761.659,144.661C754.07,144.661 747.917,139.281 747.917,132.643C747.917,126.006 754.07,120.625 761.659,120.625Z" style="fill:rgb(167,198,70);"/>
        <path d="M761.659,151.573C769.248,151.573 775.4,156.954 775.4,163.591C775.4,170.229 769.248,175.609 761.659,175.609C754.07,175.609 747.917,170.229 747.917,163.591C747.917,156.954 754.07,151.573 761.659,151.573Z" style="fill:rgb(251,214,45);"/>
        <path d="M794.949,120.625C802.538,120.625 808.691,126.006 808.691,132.643C808.691,139.281 802.538,144.661 794.949,144.661C787.36,144.661 781.207,139.281 781.207,132.643C781.207,126.006 787.36,120.625 794.949,120.625Z" style="fill:rgb(251,214,45);"/>
        <path d="M794.949,151.573C802.538,151.573 808.691,156.954 808.691,163.591C808.691,170.229 802.538,175.609 794.949,175.609C787.36,175.609 781.207,170.229 781.207,163.591C781.207,156.954 787.36,151.573 794.949,151.573Z" style="fill:rgb(251,214,45);"/>
        <path d="M828.239,120.625C835.828,120.625 841.98,126.006 841.98,132.643C841.98,139.281 835.828,144.661 828.239,144.661C820.65,144.661 814.497,139.281 814.497,132.643C814.497,126.006 820.65,120.625 828.239,120.625Z" style="fill:rgb(167,198,70);"/>
        <path d="M828.239,151.573C835.828,151.573 841.98,156.954 841.98,163.591C841.98,170.229 835.828,175.609 828.239,175.609C820.65,175.609 814.497,170.229 814.497,163.591C814.497,156.954 820.65,151.573 828.239,151.573Z" style="fill:rgb(167,198,70);"/>
    </g>
</svg>
