<?xml version="1.0" encoding="UTF-8" standalone="no"?>
<!DOCTYPE svg PUBLIC "-//W3C//DTD SVG 1.1//EN" "http://www.w3.org/Graphics/SVG/1.1/DTD/svg11.dtd">
<svg width="100%" height="100%" viewBox="0 0 105 105" version="1.1" xmlns="http://www.w3.org/2000/svg" xmlns:xlink="http://www.w3.org/1999/xlink" xml:space="preserve" xmlns:serif="http://www.serif.com/" style="fill-rule:evenodd;clip-rule:evenodd;stroke-linejoin:round;stroke-miterlimit:2;">
    <g transform="matrix(4,0,0,4,-358.917,-609.915)">
        <path d="M92.5,165L110.995,165L107.92,162.143L108.602,161.41L113,165.499L108.602,169.589L107.92,168.856L110.993,166L92.5,166L92.5,165Z" style="fill:rgb(102,204,255);fill-rule:nonzero;"/>
    </g>
    <g transform="matrix(4,0,0,4,-365.917,-609.917)">
        <path d="M93,165.5C93,159.159 98.158,154 104.5,154C110.841,154 116,159.159 116,165.5C116,171.841 110.841,177 104.5,177C98.158,177 93,171.841 93,165.5ZM92,165.5C92,172.403 97.596,178 104.5,178C111.403,178 117,172.403 117,165.5C117,158.597 111.403,153 104.5,153C97.596,153 92,158.597 92,165.5Z" style="fill:rgb(102,204,255);fill-rule:nonzero;"/>
    </g>
</svg>
