<?xml version="1.0" encoding="UTF-8" standalone="no"?><!DOCTYPE svg PUBLIC "-//W3C//DTD SVG 1.1//EN" "http://www.w3.org/Graphics/SVG/1.1/DTD/svg11.dtd"><svg width="100%" height="100%" viewBox="0 0 40 40" version="1.1" xmlns="http://www.w3.org/2000/svg" xmlns:xlink="http://www.w3.org/1999/xlink" xml:space="preserve" xmlns:serif="http://www.serif.com/" style="fill-rule:evenodd;clip-rule:evenodd;stroke-linejoin:round;stroke-miterlimit:2;"><path d="M13.352,15.066l2.376,0l0,19.482l-2.376,0l0,-19.482Zm5.481,0l2.376,0l0,19.482l-2.376,0l0,-19.482Zm5.481,0l2.376,0l0,19.482l-2.376,0l-0,-19.482Zm8.328,-5.116l-25.284,0l0,-1.884c0,-0.15 0.064,-0.236 0.214,-0.236l24.856,-0c0.15,-0 0.214,0.086 0.214,0.236l-0,1.884Zm-2.226,26.483c-0,0.149 -0.065,0.213 -0.214,0.213l-20.404,0c-0.149,0 -0.214,-0.064 -0.214,-0.213l0,-24.128l20.832,0l-0,24.128Zm-15.394,-33.076l9.956,-0l-0,2.119l-9.956,-0l0,-2.119Zm17.406,2.119l-5.074,-0l0,-3.297c0,-0.664 -0.536,-1.179 -1.198,-1.179c-0.066,-0 -0.108,0.023 -0.13,0.044c-0.021,-0.021 -0.064,-0.044 -0.085,-0.044l-12.097,-0c-0.663,-0 -1.177,0.515 -1.177,1.179l0,3.297l-5.095,-0c-1.456,-0 -2.59,1.134 -2.59,2.59l0,4.239l2.248,0l-0,24.128c-0,1.455 1.113,2.567 2.568,2.567l20.404,-0c1.455,-0 2.59,-1.112 2.59,-2.567l-0,-24.128l2.226,0l-0,-4.239c-0,-1.456 -1.135,-2.59 -2.59,-2.59Z" style="fill:#9d9d9d;fill-rule:nonzero;"/></svg>