<?xml version="1.0" encoding="UTF-8" standalone="no"?><!DOCTYPE svg PUBLIC "-//W3C//DTD SVG 1.1//EN" "http://www.w3.org/Graphics/SVG/1.1/DTD/svg11.dtd"><svg width="100%" height="100%" viewBox="0 0 80 80" version="1.1" xmlns="http://www.w3.org/2000/svg" xmlns:xlink="http://www.w3.org/1999/xlink" xml:space="preserve" xmlns:serif="http://www.serif.com/" style="fill-rule:evenodd;clip-rule:evenodd;stroke-linejoin:round;stroke-miterlimit:2;"><g><rect x="53" y="24.543" width="26" height="17.684" style="fill:#a0ca8b;fill-rule:nonzero;"/><path d="M53,39.344l8.363,-6.649l4.968,4.567l12.668,-12.719l0,17.682l-25.999,0.003l-0,-2.884Z" style="fill:#74bdb2;fill-rule:nonzero;"/></g><g><rect x="27" y="24.543" width="26" height="17.684" style="fill:#f7d277;fill-rule:nonzero;"/><path d="M27,39.344l8.363,-6.649l4.968,4.567l12.668,-12.719l0,17.682l-25.999,0.003l0,-2.884Z" style="fill:#96aeda;fill-rule:nonzero;"/></g><g><rect x="1" y="24.543" width="26" height="17.684" style="fill:#fadfd6;fill-rule:nonzero;"/><path d="M1,39.344l8.363,-6.649l4.968,4.567l12.668,-12.719l0,17.682l-25.999,0.003l0,-2.884Z" style="fill:#d98483;fill-rule:nonzero;"/></g><rect x="1" y="47.449" width="78" height="2.911" style="fill:#bacad8;fill-rule:nonzero;"/><rect x="0.884" y="43.543" width="78" height="2.911" style="fill:#bacad8;fill-rule:nonzero;"/><rect x="0.884" y="51.632" width="78" height="2.911" style="fill:#bacad8;fill-rule:nonzero;"/></svg>