<?xml version="1.0" encoding="UTF-8" standalone="no"?><!DOCTYPE svg PUBLIC "-//W3C//DTD SVG 1.1//EN" "http://www.w3.org/Graphics/SVG/1.1/DTD/svg11.dtd"><svg width="100%" height="100%" viewBox="0 0 80 80" version="1.1" xmlns="http://www.w3.org/2000/svg" xmlns:xlink="http://www.w3.org/1999/xlink" xml:space="preserve" xmlns:serif="http://www.serif.com/" style="fill-rule:evenodd;clip-rule:evenodd;stroke-linejoin:round;stroke-miterlimit:2;"><path d="M65,39.692c0,-0.619 -0.502,-1.121 -1.12,-1.121l-47.76,0c-0.618,0 -1.12,0.502 -1.12,1.121l0,0.759c0,0.618 0.502,1.12 1.12,1.12l47.76,0c0.618,0 1.12,-0.502 1.12,-1.12l0,-0.759Z" style="fill:#ebebeb;"/><path d="M40.38,65.071c0.618,0 1.12,-0.502 1.12,-1.12l0,-47.759c0,-0.619 -0.502,-1.121 -1.12,-1.121l-0.76,0c-0.618,0 -1.12,0.502 -1.12,1.121l-0,47.759c-0,0.618 0.502,1.12 1.12,1.12l0.76,0Z" style="fill:#ebebeb;"/></svg>